<svg width="24" height="24" viewBox="0 0 24 24" fill="none" xmlns="http://www.w3.org/2000/svg">
<path d="M20.7957 16.6102C20.2753 15.691 19.5018 13.0899 19.5018 9.69264C19.5018 7.65242 18.7115 5.69577 17.3047 4.25312C15.8979 2.81047 13.9899 2 12.0005 2C10.011 2 8.10302 2.81047 6.69625 4.25312C5.28949 5.69577 4.49917 7.65242 4.49917 9.69264C4.49917 13.0909 3.72466 15.691 3.20426 16.6102C3.07137 16.844 3.00091 17.1095 3.00001 17.38C2.9991 17.6505 3.06778 17.9165 3.1991 18.1512C3.33043 18.3858 3.51977 18.5808 3.74802 18.7164C3.97627 18.8521 4.23536 18.9236 4.49917 18.9238H8.32577C8.49884 19.7923 8.95909 20.5728 9.62868 21.1333C10.2983 21.6938 11.1361 22 12.0005 22C12.8648 22 13.7027 21.6938 14.3723 21.1333C15.0418 20.5728 15.5021 19.7923 15.6752 18.9238H19.5018C19.7655 18.9234 20.0245 18.8518 20.2526 18.7161C20.4807 18.5804 20.6699 18.3854 20.8011 18.1508C20.9323 17.9161 21.0009 17.6502 21 17.3798C20.999 17.1093 20.9286 16.8439 20.7957 16.6102ZM12.0005 20.4623C11.5352 20.4622 11.0815 20.3142 10.7016 20.0386C10.3218 19.7631 10.0346 19.3736 9.87948 18.9238H14.1215C13.9664 19.3736 13.6792 19.7631 13.2993 20.0386C12.9195 20.3142 12.4657 20.4622 12.0005 20.4623ZM4.49917 17.3853C5.22117 16.1121 5.99943 13.162 5.99943 9.69264C5.99943 8.06047 6.63168 6.49515 7.75709 5.34103C8.88251 4.18691 10.4089 3.53853 12.0005 3.53853C13.592 3.53853 15.1184 4.18691 16.2438 5.34103C17.3693 6.49515 18.0015 8.06047 18.0015 9.69264C18.0015 13.1591 18.7779 16.1093 19.5018 17.3853H4.49917Z" fill="#27272D"/>
</svg>
