<svg width="168" height="43" viewBox="0 0 168 43" fill="none" xmlns="http://www.w3.org/2000/svg">
<g id="Group 1000012464">
<path id="Vector" d="M12.0408 33.4299C9.74366 33.4299 7.71978 33.02 5.97771 32.2088C4.22709 31.3975 2.84368 30.2446 1.81893 28.7502C0.794181 27.2558 0.187871 25.5137 0 23.524H4.16731C4.37226 24.8818 4.81632 26.0432 5.50803 26.9996C6.1912 27.956 7.09639 28.6904 8.20654 29.1943C9.31668 29.6981 10.6062 29.9543 12.0664 29.9543C13.2961 29.9543 14.3807 29.7494 15.3285 29.3309C16.2679 28.9125 17.0108 28.3232 17.5403 27.5632C18.0697 26.8032 18.343 25.9236 18.343 24.933C18.343 23.7887 18.1124 22.8494 17.6428 22.115C17.1731 21.3806 16.4216 20.7486 15.3969 20.2363C14.3636 19.7239 12.946 19.2457 11.1271 18.8102C8.82992 18.2551 6.98538 17.5805 5.58489 16.7948C4.18439 16.0092 3.16818 15.0357 2.53626 13.8999C1.90433 12.7641 1.57982 11.3807 1.57982 9.77528C1.57982 8.16984 1.98972 6.68395 2.81806 5.41155C3.6464 4.13915 4.81632 3.14856 6.32783 2.44832C7.83933 1.74807 9.58995 1.39795 11.5797 1.39795C13.5694 1.39795 15.2431 1.72245 16.7034 2.38854C18.1551 3.04609 19.3165 4.0196 20.179 5.292C21.0415 6.56439 21.5795 8.12714 21.7845 9.95461H17.7282C17.583 8.84446 17.25 7.90511 16.7376 7.14509C16.2252 6.38506 15.542 5.80437 14.6881 5.41155C13.8341 5.01873 12.8008 4.82232 11.6053 4.82232C10.4097 4.82232 9.39354 5.01019 8.5225 5.39447C7.65146 5.77875 6.98538 6.31675 6.5157 7.01699C6.04602 7.71724 5.81545 8.54558 5.81545 9.49347C5.81545 10.4414 6.00332 11.2526 6.37907 11.9273C6.75481 12.6019 7.36966 13.174 8.23215 13.6608C9.09465 14.1475 10.2817 14.5574 11.7846 14.9076C14.3294 15.5053 16.3875 16.2312 17.9587 17.0766C19.53 17.922 20.6999 18.9639 21.46 20.2021C22.22 21.4403 22.6043 22.9348 22.6043 24.6854C22.6043 26.436 22.1602 27.939 21.2636 29.2626C20.3669 30.5862 19.1287 31.611 17.5318 32.3368C15.9349 33.0627 14.1074 33.4214 12.0493 33.4214L12.0408 33.4299Z" fill="#231F20"/>
<path id="Vector_2" d="M36.8157 33.379C34.5357 33.379 32.5118 32.8837 30.7612 31.9017C29.0106 30.9196 27.6357 29.5277 26.6622 27.7343C25.6801 25.941 25.1934 23.8745 25.1934 21.5346C25.1934 19.1948 25.7057 17.1538 26.739 15.3605C27.7723 13.5672 29.1643 12.1838 30.9149 11.2017C32.674 10.2197 34.604 9.73291 36.7047 9.73291C38.9421 9.73291 40.9062 10.2026 42.5885 11.1505C44.2708 12.0984 45.5688 13.4049 46.4825 15.0872C47.3963 16.7695 47.8574 18.6909 47.8574 20.86C47.8574 21.0649 47.8574 21.2784 47.8489 21.5005C47.8403 21.7225 47.8318 21.9445 47.8147 22.1836C47.7976 22.3288 47.7891 22.474 47.7805 22.6106C47.772 22.7472 47.7635 22.8668 47.7464 22.9693H28.2164V19.7242H44.7405L44.0146 20.0573C44.0146 18.6995 43.7072 17.4868 43.1009 16.4109C42.4945 15.3434 41.6406 14.5151 40.5304 13.9173C39.4288 13.3281 38.1564 13.0292 36.7218 13.0292C35.2871 13.0292 34.0233 13.3366 32.9131 13.9515C31.8115 14.5663 30.932 15.4288 30.2829 16.5304C29.6339 17.632 29.2667 18.913 29.1984 20.3561V22.2434C29.1984 23.7805 29.5144 25.1383 30.1549 26.3168C30.7953 27.4952 31.6834 28.409 32.8277 29.058C33.972 29.707 35.3042 30.0315 36.8072 30.0315C37.9173 30.0315 38.9421 29.8607 39.8644 29.5277C40.7952 29.1946 41.5723 28.7164 42.2042 28.093C42.8361 27.4696 43.2717 26.7437 43.5193 25.9069H47.4902C47.1401 27.4269 46.474 28.7506 45.4834 29.8778C44.4928 31.005 43.2546 31.8675 41.7687 32.4738C40.2828 33.0801 38.6261 33.3875 36.8072 33.3875L36.8157 33.379Z" fill="#231F20"/>
<path id="Vector_3" d="M62.3247 33.3787C60.0105 33.3787 57.9353 32.8664 56.0908 31.8502C54.2462 30.8339 52.8031 29.4249 51.7612 27.6231C50.7194 25.8212 50.1899 23.7973 50.1899 21.5429C50.1899 19.2884 50.7109 17.2646 51.7612 15.4627C52.8031 13.6609 54.2548 12.2604 56.0908 11.2356C57.9268 10.2109 60.0105 9.70703 62.3247 9.70703C64.6389 9.70703 66.714 10.2194 68.5586 11.2356C70.4031 12.2518 71.8463 13.6609 72.8881 15.4627C73.93 17.2646 74.4594 19.2884 74.4594 21.5429C74.4594 23.7973 73.9385 25.8212 72.8881 27.6231C71.8463 29.4249 70.3946 30.8339 68.5586 31.8502C66.714 32.8664 64.6389 33.3787 62.3247 33.3787ZM62.3247 29.98C63.9045 29.98 65.305 29.6213 66.5262 28.904C67.7473 28.1867 68.6952 27.1961 69.3784 25.9237C70.0615 24.6513 70.3946 23.1996 70.3946 21.56C70.3946 19.9204 70.053 18.4686 69.3784 17.1962C68.6952 15.9238 67.7473 14.9247 66.5262 14.2074C65.305 13.4901 63.9045 13.1314 62.3247 13.1314C60.7449 13.1314 59.3444 13.4901 58.1232 14.2074C56.902 14.9247 55.9542 15.9153 55.271 17.1962C54.5878 18.4686 54.2462 19.9204 54.2462 21.56C54.2462 23.1996 54.5878 24.6513 55.271 25.9237C55.9542 27.1961 56.902 28.1952 58.1232 28.904C59.3444 29.6213 60.7449 29.98 62.3247 29.98Z" fill="#231F20"/>
<path id="Vector_4" d="M77.6548 32.6785V10.4329H80.5753C80.6009 10.8599 80.6351 11.2954 80.6778 11.7565C80.712 12.2177 80.7547 12.6361 80.7974 13.0204C80.8571 13.4047 80.934 13.6694 81.0279 13.8231C81.1219 13.9768 81.2585 14.0537 81.4378 14.0537C81.5659 14.0537 81.6855 14.0195 81.7794 13.9427C81.8733 13.8658 82.01 13.7121 82.1893 13.4559C83.0689 12.2262 84.1107 11.2954 85.3233 10.672C86.536 10.0486 87.9791 9.72412 89.6444 9.72412C91.4462 9.72412 92.9748 10.0913 94.2387 10.8257C95.5025 11.5601 96.4675 12.619 97.1336 14.0195C97.7997 15.42 98.1327 17.1109 98.1327 19.1006V32.6785H94.2045V19.5361C94.2045 18.1868 93.9995 17.0425 93.5811 16.0946C93.1627 15.1468 92.5649 14.4209 91.7707 13.9341C90.9851 13.4474 90.0286 13.1997 88.9185 13.1997C87.7486 13.1997 86.7067 13.4303 85.8015 13.8829C84.8964 14.3355 84.1193 15.0187 83.4788 15.9239C82.8042 16.8717 82.3259 17.9904 82.0271 19.2714C81.7367 20.5523 81.5915 21.9784 81.5915 23.5582V32.6871H77.6633L77.6548 32.6785Z" fill="#231F20"/>
<path id="Vector_5" d="M105.658 42.1149L110.047 31.9102V33.4473L100.175 10.4331H104.582L112.395 29.4764H111.405L119.039 10.4331H123.138L109.688 42.1149H105.649H105.658Z" fill="#231F20"/>
<path id="Vector_6" d="M132.192 33.3788C130.569 33.3788 129.135 33.097 127.879 32.5333C126.633 31.9697 125.659 31.1499 124.959 30.0654C124.259 28.9809 123.917 27.6999 123.917 26.2055C123.917 24.8306 124.241 23.6693 124.891 22.7214C125.54 21.7735 126.522 21.022 127.828 20.484C129.135 19.946 130.783 19.613 132.755 19.4934C134.771 19.3738 136.427 19.2287 137.725 19.0579C139.024 18.8786 139.869 18.6821 140.279 18.4687V21.3892C139.843 21.6368 139.058 21.8503 137.93 22.0126C136.803 22.1834 135.164 22.3542 133.02 22.525C131.773 22.6274 130.774 22.8238 130.014 23.1142C129.254 23.4045 128.699 23.8059 128.349 24.3012C127.999 24.7965 127.82 25.4284 127.82 26.1884C127.82 27.0509 128.025 27.7853 128.443 28.3831C128.861 28.9809 129.451 29.4335 130.211 29.7324C130.971 30.0312 131.867 30.185 132.884 30.185C134.199 30.185 135.369 29.9202 136.393 29.3822C137.418 28.8528 138.221 27.9561 138.81 26.7179C139.135 26.0433 139.374 25.3003 139.536 24.4891C139.698 23.6778 139.775 22.747 139.775 21.6881V18.8786C139.775 16.9657 139.305 15.5054 138.357 14.5148C137.418 13.5157 136.06 13.0204 134.284 13.0204C132.764 13.0204 131.509 13.3705 130.518 14.0708C129.527 14.771 128.878 15.736 128.554 16.9657H124.583C124.891 15.514 125.48 14.2501 126.351 13.157C127.222 12.064 128.34 11.2185 129.707 10.6208C131.073 10.023 132.627 9.72412 134.369 9.72412C137.401 9.72412 139.69 10.5354 141.261 12.1579C142.832 13.7804 143.609 16.1117 143.609 19.1604V32.6785H140.757C140.74 32.4565 140.731 32.2515 140.723 32.038C140.723 31.8331 140.697 31.6367 140.672 31.4488C140.646 31.1414 140.612 30.8596 140.569 30.6034C140.535 30.3472 140.484 30.1508 140.424 30.0227C140.364 29.8605 140.296 29.7409 140.228 29.664C140.151 29.5872 140.048 29.5445 139.92 29.5445C139.758 29.5445 139.621 29.5957 139.502 29.6897C139.382 29.7836 139.228 29.9715 139.041 30.2533C138.323 31.2951 137.392 32.0722 136.24 32.6017C135.095 33.1311 133.738 33.3873 132.166 33.3873L132.192 33.3788Z" fill="#231F20"/>
<path id="Vector_7" d="M147.129 32.6786V0.954102H151.057V32.6786H147.129ZM161.68 32.6786L150.801 21.5089L161.51 10.4245H166.531L154.772 22.3628L155.122 20.6037L167.035 32.6701H161.68V32.6786Z" fill="#231F20"/>
</g>
</svg>
