<svg width="33" height="33" viewBox="0 0 33 33" fill="#C5C5C5" xmlns="http://www.w3.org/2000/svg">
<path fill-rule="evenodd" clip-rule="evenodd" d="M19.6543 18.595C19.7239 18.6646 19.7791 18.7473 19.8168 18.8383C19.8545 18.9293 19.8739 19.0268 19.8739 19.1252C19.8739 19.2237 19.8545 19.3212 19.8168 19.4122C19.7791 19.5032 19.7239 19.5859 19.6543 19.6555C19.5846 19.7251 19.502 19.7804 19.411 19.818C19.32 19.8557 19.2225 19.8751 19.124 19.8751C19.0255 19.8751 18.928 19.8557 18.8371 19.818C18.7461 19.7804 18.6634 19.7251 18.5938 19.6555L16.499 17.5607L14.4043 19.6555C14.3348 19.7254 14.2522 19.7808 14.1612 19.8187C14.0702 19.8565 13.9726 19.876 13.874 19.876C13.7755 19.876 13.6779 19.8565 13.5869 19.8187C13.4959 19.7808 13.4133 19.7254 13.3438 19.6555C13.2741 19.5859 13.2188 19.5033 13.181 19.4123C13.1433 19.3213 13.1239 19.2237 13.1239 19.1252C13.1239 19.0267 13.1433 18.9292 13.181 18.8382C13.2188 18.7472 13.2741 18.6646 13.3438 18.595L15.4385 16.5002L13.3438 14.4055C13.2741 14.3359 13.2189 14.2532 13.1812 14.1622C13.1435 14.0712 13.1241 13.9737 13.1241 13.8752C13.1241 13.7768 13.1435 13.6793 13.1812 13.5883C13.2189 13.4973 13.2741 13.4146 13.3438 13.345C13.4134 13.2754 13.4961 13.2201 13.5871 13.1824C13.678 13.1448 13.7755 13.1254 13.874 13.1254C13.9725 13.1254 14.07 13.1448 14.161 13.1824C14.252 13.2201 14.3346 13.2754 14.4043 13.345L16.499 15.4397L18.5938 13.345C18.6634 13.2754 18.7461 13.2201 18.8371 13.1824C18.928 13.1448 19.0255 13.1254 19.124 13.1254C19.2225 13.1254 19.32 13.1448 19.411 13.1824C19.502 13.2201 19.5846 13.2754 19.6543 13.345C19.7239 13.4146 19.7791 13.4973 19.8168 13.5883C19.8545 13.6793 19.8739 13.7768 19.8739 13.8752C19.8739 13.9737 19.8545 14.0712 19.8168 14.1622C19.7791 14.2532 19.7239 14.3359 19.6543 14.4055L17.5595 16.5002L19.6543 18.595ZM16.499 8.25024C11.9428 8.25024 8.24902 11.944 8.24902 16.5002C8.24902 21.0565 11.9428 24.7502 16.499 24.7502C21.0553 24.7502 24.749 21.0565 24.749 16.5002C24.749 11.944 21.0553 8.25024 16.499 8.25024Z"/>
</svg>
