<svg width="37" height="37" viewBox="0 0 37 37" fill="none" xmlns="http://www.w3.org/2000/svg">
<g clip-path="url(#clip0_1028_30043)">
<circle cx="18.5" cy="18.5" r="18" transform="matrix(-1 0 0 1 37 0)" fill="white" stroke="#A2A7B0"/>
<path d="M22.9558 11.8675C22.6836 11.0509 21.9193 10.5 21.0585 10.5H15.9415C15.0807 10.5 14.3164 11.0509 14.0442 11.8675L13.9558 12.1325C13.6836 12.9491 12.9193 13.5 12.0585 13.5H11.5C10.3954 13.5 9.5 14.3954 9.5 15.5V24.5C9.5 25.6046 10.3954 26.5 11.5 26.5H25.5C26.6046 26.5 27.5 25.6046 27.5 24.5V15.5C27.5 14.3954 26.6046 13.5 25.5 13.5H24.9415C24.0807 13.5 23.3164 12.9491 23.0442 12.1325L22.9558 11.8675Z" fill="#A2A7B0"/>
<path d="M22.5 19.5C22.5 21.7091 20.7091 23.5 18.5 23.5C16.2909 23.5 14.5 21.7091 14.5 19.5C14.5 17.2909 16.2909 15.5 18.5 15.5C20.7091 15.5 22.5 17.2909 22.5 19.5Z" fill="#A2A7B0"/>
<path d="M22.9558 11.8675C22.6836 11.0509 21.9193 10.5 21.0585 10.5H15.9415C15.0807 10.5 14.3164 11.0509 14.0442 11.8675L13.9558 12.1325C13.6836 12.9491 12.9193 13.5 12.0585 13.5H11.5C10.3954 13.5 9.5 14.3954 9.5 15.5V24.5C9.5 25.6046 10.3954 26.5 11.5 26.5H25.5C26.6046 26.5 27.5 25.6046 27.5 24.5V15.5C27.5 14.3954 26.6046 13.5 25.5 13.5H24.9415C24.0807 13.5 23.3164 12.9491 23.0442 12.1325L22.9558 11.8675Z" stroke="white" stroke-width="1.2"/>
<path d="M22.5 19.5C22.5 21.7091 20.7091 23.5 18.5 23.5C16.2909 23.5 14.5 21.7091 14.5 19.5C14.5 17.2909 16.2909 15.5 18.5 15.5C20.7091 15.5 22.5 17.2909 22.5 19.5Z" stroke="white" stroke-width="1.2"/>
</g>
<defs>
<clipPath id="clip0_1028_30043">
<rect width="37" height="37" fill="white"/>
</clipPath>
</defs>
</svg>
