<svg width="64" height="17" viewBox="0 0 64 17" fill="none" xmlns="http://www.w3.org/2000/svg">
<path d="M4.578 12.9707C3.842 12.9707 3.19731 12.8573 2.64392 12.6304C2.09054 12.4035 1.64783 12.077 1.3158 11.6509C0.983765 11.2248 0.773478 10.7157 0.684937 10.1235H2.80164C2.84591 10.3947 2.94275 10.6271 3.09216 10.8208C3.24158 11.009 3.4408 11.1556 3.68982 11.2607C3.94438 11.3604 4.24597 11.4102 4.5946 11.4102C4.8879 11.4102 5.14246 11.3714 5.35828 11.2939C5.5741 11.2109 5.74011 11.0975 5.85632 10.9536C5.97253 10.8042 6.03064 10.6299 6.03064 10.4307C6.03064 10.2093 5.98083 10.0295 5.88123 9.89111C5.78162 9.75277 5.61007 9.63379 5.36658 9.53418C5.12309 9.43457 4.77722 9.34603 4.32898 9.26855C3.52104 9.12467 2.87634 8.94206 2.3949 8.7207C1.91899 8.49382 1.57035 8.20605 1.349 7.85742C1.13318 7.50326 1.02527 7.06055 1.02527 6.5293C1.02527 6.01465 1.16638 5.56087 1.44861 5.16797C1.73083 4.77507 2.12651 4.4707 2.63562 4.25488C3.15027 4.03906 3.74239 3.93115 4.41199 3.93115C5.45789 3.93115 6.27966 4.16634 6.87732 4.63672C7.47498 5.1071 7.83191 5.78776 7.94812 6.67871H5.88953C5.82312 6.26921 5.67094 5.96761 5.43298 5.77393C5.20056 5.58024 4.86576 5.4834 4.42859 5.4834C4.15743 5.4834 3.92224 5.52214 3.72302 5.59961C3.5238 5.67155 3.36886 5.77669 3.25818 5.91504C3.1475 6.05339 3.09216 6.21663 3.09216 6.40479C3.09216 6.62061 3.14473 6.79769 3.24988 6.93604C3.35502 7.07438 3.52657 7.19059 3.76453 7.28467C4.00248 7.37874 4.33451 7.46175 4.76062 7.53369C5.5907 7.67204 6.24646 7.85465 6.72791 8.08154C7.21488 8.3029 7.56628 8.59066 7.7821 8.94482C8.00346 9.29899 8.11414 9.75 8.11414 10.2979C8.11414 10.8125 7.96472 11.2746 7.66589 11.6841C7.36707 12.0881 6.94926 12.4035 6.41248 12.6304C5.88123 12.8573 5.26973 12.9707 4.578 12.9707ZM13.2096 12.9707C12.3297 12.9707 11.5494 12.7826 10.8687 12.4062C10.1881 12.0244 9.65682 11.4932 9.27498 10.8125C8.89315 10.1263 8.70223 9.33773 8.70223 8.44678C8.70223 7.56136 8.89868 6.77832 9.29158 6.09766C9.68449 5.41146 10.2213 4.88021 10.9019 4.50391C11.5826 4.12207 12.3407 3.93115 13.1764 3.93115C14.0452 3.93115 14.8088 4.111 15.4674 4.4707C16.1259 4.8304 16.635 5.33398 16.9947 5.98145C17.3599 6.62891 17.5426 7.37044 17.5426 8.20605C17.5426 8.30013 17.5398 8.39421 17.5343 8.48828C17.5343 8.58236 17.5315 8.6792 17.526 8.77881C17.5204 8.84521 17.5121 8.90885 17.5011 8.96973C17.4955 9.02507 17.49 9.07487 17.4845 9.11914H10.4288V7.68311H15.7496L15.4757 7.79932C15.4701 7.36214 15.3705 6.97754 15.1768 6.64551C14.9887 6.30794 14.7231 6.04785 14.38 5.86523C14.0424 5.68262 13.6523 5.59131 13.2096 5.59131C12.7613 5.59131 12.3629 5.68815 12.0142 5.88184C11.6711 6.06999 11.3972 6.33561 11.1925 6.67871C10.9932 7.01628 10.8798 7.40641 10.8521 7.84912V8.90332C10.8521 9.3737 10.9517 9.78874 11.151 10.1484C11.3502 10.5081 11.6269 10.7876 11.981 10.9868C12.3407 11.186 12.7558 11.2856 13.2262 11.2856C13.5748 11.2856 13.8902 11.2358 14.1724 11.1362C14.4547 11.0366 14.6926 10.8955 14.8863 10.7129C15.08 10.5303 15.2156 10.3117 15.293 10.0571H17.3931C17.2548 10.6493 16.9947 11.1639 16.6129 11.6011C16.231 12.0382 15.7496 12.3758 15.1685 12.6138C14.5875 12.8517 13.9345 12.9707 13.2096 12.9707ZM22.8455 12.9707C21.9435 12.9707 21.1328 12.777 20.4134 12.3896C19.6995 12.0023 19.1378 11.4655 18.7283 10.7793C18.3243 10.0931 18.1224 9.31836 18.1224 8.45508C18.1224 7.5918 18.3243 6.81706 18.7283 6.13086C19.1378 5.43913 19.6995 4.89958 20.4134 4.51221C21.1328 4.12484 21.9435 3.93115 22.8455 3.93115C23.7475 3.93115 24.5582 4.12484 25.2776 4.51221C25.997 4.89958 26.5587 5.43913 26.9627 6.13086C27.3667 6.81706 27.5686 7.5918 27.5686 8.45508C27.5686 9.31836 27.3667 10.0931 26.9627 10.7793C26.5587 11.4655 25.997 12.0023 25.2776 12.3896C24.5582 12.777 23.7475 12.9707 22.8455 12.9707ZM22.8455 11.1445C23.3491 11.1445 23.7946 11.0311 24.1819 10.8042C24.5693 10.5773 24.8681 10.2619 25.0784 9.85791C25.2887 9.4484 25.3938 8.98079 25.3938 8.45508C25.3938 7.92383 25.2887 7.45622 25.0784 7.05225C24.8681 6.64274 24.5693 6.32454 24.1819 6.09766C23.7946 5.87077 23.3491 5.75732 22.8455 5.75732C22.3419 5.75732 21.8964 5.87077 21.5091 6.09766C21.1272 6.32454 20.8284 6.64274 20.6126 7.05225C20.4023 7.45622 20.2972 7.92383 20.2972 8.45508C20.2972 8.98079 20.4023 9.4484 20.6126 9.85791C20.8284 10.2619 21.1272 10.5773 21.5091 10.8042C21.8964 11.0311 22.3419 11.1445 22.8455 11.1445ZM28.6631 12.6968V4.20508H30.2402C30.2458 4.34342 30.2568 4.49007 30.2734 4.64502C30.29 4.79443 30.3094 4.93278 30.3315 5.06006C30.3592 5.1818 30.3952 5.27035 30.4395 5.32568C30.4837 5.38102 30.5391 5.40869 30.6055 5.40869C30.6663 5.40869 30.7161 5.39486 30.7549 5.36719C30.7992 5.33952 30.8573 5.28141 30.9292 5.19287C31.2557 4.7723 31.6348 4.45687 32.0664 4.24658C32.5036 4.0363 33.0155 3.93115 33.6021 3.93115C34.2772 3.93115 34.8527 4.0695 35.3286 4.34619C35.8045 4.61735 36.167 5.01579 36.416 5.5415C36.665 6.06169 36.7896 6.68978 36.7896 7.42578V12.6968H34.6646V7.78271C34.6646 7.36214 34.6009 7.00521 34.4736 6.71191C34.3464 6.41862 34.1582 6.19727 33.9092 6.04785C33.6657 5.89844 33.3696 5.82373 33.021 5.82373C32.6724 5.82373 32.3625 5.89014 32.0913 6.02295C31.8201 6.15023 31.585 6.34668 31.3857 6.6123C31.181 6.889 31.0316 7.21549 30.9375 7.5918C30.8434 7.9681 30.7964 8.39421 30.7964 8.87012V12.6968H28.6631ZM39.1457 16.2661L40.7644 12.3813V13.0039L37.1203 4.20508H39.486L42.0676 10.9785H41.5861L44.1179 4.20508H46.3342L41.3454 16.2661H39.1457ZM49.3212 12.9624C48.7125 12.9624 48.1702 12.8545 47.6943 12.6387C47.2183 12.4229 46.8448 12.1074 46.5736 11.6924C46.308 11.2773 46.1752 10.7876 46.1752 10.2231C46.1752 9.69189 46.2997 9.24089 46.5487 8.87012C46.8033 8.49935 47.1796 8.21159 47.6777 8.00684C48.1812 7.79655 48.8093 7.66927 49.5619 7.625C50.2371 7.58626 50.8098 7.53369 51.2802 7.46729C51.7506 7.39535 52.0632 7.32064 52.2182 7.24316V8.55469C52.0522 8.6543 51.7865 8.7373 51.4213 8.80371C51.0616 8.86458 50.547 8.92546 49.8774 8.98633C49.4955 9.01953 49.1884 9.08317 48.956 9.17725C48.7235 9.27132 48.5548 9.3986 48.4496 9.55908C48.35 9.71403 48.3002 9.90771 48.3002 10.1401C48.3002 10.4113 48.3638 10.641 48.4911 10.8291C48.6184 11.0117 48.7983 11.1501 49.0307 11.2441C49.2631 11.3382 49.537 11.3853 49.8525 11.3853C50.262 11.3853 50.6189 11.305 50.9233 11.1445C51.2332 10.984 51.4794 10.724 51.662 10.3643C51.7672 10.1595 51.8446 9.93262 51.8944 9.68359C51.9443 9.42904 51.9692 9.13851 51.9692 8.81201V7.30957C51.9692 6.75065 51.8253 6.32454 51.5375 6.03125C51.2553 5.73796 50.8458 5.59131 50.309 5.59131C49.8442 5.59131 49.4596 5.69922 49.1552 5.91504C48.8564 6.13086 48.6599 6.42969 48.5658 6.81152H46.4408C46.557 6.24154 46.7839 5.74072 47.1215 5.30908C47.4591 4.87744 47.9018 4.53988 48.4496 4.29639C49.003 4.0529 49.6394 3.93115 50.3588 3.93115C51.5541 3.93115 52.4617 4.23828 53.0815 4.85254C53.7068 5.46126 54.0194 6.34115 54.0194 7.49219V12.6968H52.4589C52.4534 12.6304 52.4478 12.5667 52.4423 12.5059C52.4423 12.4395 52.4368 12.3758 52.4257 12.3149C52.4146 12.2153 52.4008 12.124 52.3842 12.041C52.3731 11.9525 52.3593 11.8805 52.3427 11.8252C52.3206 11.7533 52.2929 11.7007 52.2597 11.6675C52.232 11.6343 52.1905 11.6177 52.1352 11.6177C52.0798 11.6177 52.03 11.6343 51.9858 11.6675C51.947 11.6951 51.8944 11.7533 51.828 11.8418C51.5403 12.2236 51.1916 12.5059 50.7821 12.6885C50.3782 12.8711 49.8912 12.9624 49.3212 12.9624ZM61.1652 12.6968L57.546 8.43848L61.0822 4.20508H63.672L59.6793 8.83691L59.837 8.03174L63.9044 12.6968H61.1652ZM55.5621 12.6968V0.693848H57.6954V12.6968H55.5621Z" fill="#4685FF"/>
</svg>
