<svg width="33" height="33" viewBox="0 0 33 33" fill="none" xmlns="http://www.w3.org/2000/svg">
<path d="M24.7085 23.2926L20.8693 19.4534C21.7735 18.2551 22.316 16.7701 22.316 15.1568C22.316 11.2101 19.1043 7.99927 15.1585 7.99927C11.2118 8.0001 8.00098 11.2109 8.00098 15.1576C8.00098 19.1034 11.2118 22.3151 15.1585 22.3151C16.771 22.3151 18.2568 21.7726 19.4551 20.8684L23.2943 24.7076C23.4893 24.9026 23.7451 25.0001 24.001 25.0001C24.2568 25.0001 24.5126 24.9026 24.7085 24.7068C25.0985 24.3168 25.0985 23.6834 24.7085 23.2926ZM10.001 15.1576C10.001 12.3134 12.3143 10.0001 15.1585 10.0001C18.0018 10.0001 20.3151 12.3134 20.3151 15.1568C20.3151 18.0001 18.0018 20.3134 15.1585 20.3134C12.3143 20.3143 10.001 18.0009 10.001 15.1576Z" fill="#5E5E6E"/>
</svg>
