<svg width="375" height="667" viewBox="0 0 375 667" fill="none" xmlns="http://www.w3.org/2000/svg">
<g clip-path="url(#clip0_3107_8977)">
<rect width="375" height="667" fill="white"/>
<g opacity="0.8" filter="url(#filter0_f_3107_8977)">
<circle cx="127.533" cy="127.533" r="127.533" transform="matrix(-1 0 0 1 433.329 125.161)" fill="#F9E1DF"/>
</g>
<g opacity="0.8" filter="url(#filter1_f_3107_8977)">
<circle cx="139.458" cy="139.458" r="139.458" transform="matrix(-1 0 0 1 220.587 143.372)" fill="#E2FAFA"/>
</g>
<g opacity="0.8" filter="url(#filter2_f_3107_8977)">
<circle cx="139.458" cy="139.458" r="139.458" transform="matrix(-1 0 0 1 317.72 292.192)" fill="#D9F7FF"/>
</g>
<path d="M167.653 64.5928V69.0928H169.815V70.9385H167.653V76.3701H165.403V64.5928H167.653ZM168.233 78.4971V80.29H157.282V75.1572H159.514V78.4971H168.233ZM157.669 65.7178V68.0381H160.938V65.7178H163.188V73.8213H155.436V65.7178H157.669ZM157.669 72.0635H160.938V69.7607H157.669V72.0635ZM182.959 64.5752V70.71H185.227V72.5557H182.959V80.5361H180.709V64.5752H182.959ZM178.688 66.21C178.67 70.9912 176.807 75.1396 171.428 77.7764L170.162 76.0537C173.951 74.1553 175.981 71.6064 176.403 68.0381H171.076V66.21H178.688ZM199.373 64.5928V80.5713H197.088V77.0381H193.836V75.3506H197.088V64.5928H199.373ZM185.645 72.6963C188.633 72.6963 192.623 72.6787 196.068 72.2217L196.191 73.8564C194.785 74.1113 193.335 74.2695 191.92 74.3662V80.0967H189.652V74.4717C188.325 74.5156 187.068 74.5244 185.926 74.5244L185.645 72.6963ZM190.883 65.2256C193.238 65.2256 194.979 66.5967 194.996 68.5127C194.979 70.4814 193.238 71.7822 190.883 71.7822C188.492 71.7822 186.77 70.4814 186.77 68.5127C186.77 66.5967 188.492 65.2256 190.883 65.2256ZM190.883 66.9307C189.688 66.9307 188.879 67.5459 188.879 68.5127C188.879 69.5146 189.688 70.0771 190.883 70.0771C192.043 70.0771 192.852 69.5146 192.869 68.5127C192.852 67.5459 192.043 66.9307 190.883 66.9307ZM215.734 76.8623V78.708H201.091V76.8623H204.361V72.9424C203.122 72.2041 202.375 71.0703 202.375 69.6553C202.375 67.0713 204.906 65.3486 208.386 65.3486C211.849 65.3486 214.398 67.0713 214.416 69.6553C214.407 71.0352 213.677 72.1602 212.482 72.9072V76.8623H215.734ZM208.386 67.124C206.101 67.124 204.59 68.0381 204.59 69.6553C204.59 71.2197 206.101 72.1865 208.386 72.1865C210.654 72.1865 212.183 71.2197 212.201 69.6553C212.183 68.0381 210.654 67.124 208.386 67.124ZM206.576 76.8623H210.215V73.751C209.643 73.8652 209.028 73.9268 208.386 73.9268C207.745 73.9268 207.138 73.874 206.576 73.751V76.8623ZM220.107 66.2275L219.878 75.1396H217.628L217.4 66.2275H220.107ZM218.771 79.1123C217.945 79.1123 217.277 78.4443 217.294 77.6357C217.277 76.8271 217.945 76.1768 218.771 76.1768C219.544 76.1768 220.23 76.8271 220.23 77.6357C220.23 78.4443 219.544 79.1123 218.771 79.1123ZM130.204 98.7197C130.204 100.595 131.329 102.423 133.517 103.173L132.564 104.532C131.04 103.954 129.947 102.853 129.361 101.47C128.743 103.017 127.595 104.243 125.939 104.86L125.017 103.485C127.283 102.72 128.439 100.767 128.454 98.7041V97.0947H130.204V98.7197ZM136.892 96.2354V106.72H135.158V100.767H132.345V99.3447H135.158V96.2354H136.892ZM137.204 108.657V110.063H127.579V105.579H129.345V108.657H137.204ZM151.794 98.1885V99.5947H149.872V101.22H151.794V102.673H149.872V104.563H148.138V96.2197H149.872V98.1885H151.794ZM149.872 105.173V110.345H148.138V106.579H140.466V105.173H149.872ZM142.701 97.0322C144.872 97.0166 146.497 98.4385 146.513 100.423C146.497 102.438 144.872 103.845 142.701 103.845C140.513 103.845 138.872 102.438 138.888 100.423C138.872 98.4385 140.513 97.0166 142.701 97.0322ZM142.701 98.501C141.482 98.5166 140.576 99.251 140.591 100.423C140.576 101.626 141.482 102.376 142.701 102.36C143.904 102.376 144.81 101.626 144.81 100.423C144.81 99.251 143.904 98.5166 142.701 98.501ZM164.588 96.2197V110.345H162.916V96.2197H164.588ZM161.681 96.4697V109.657H160.025V102.938H158.681C158.517 105.688 157.338 107.392 155.588 107.376C153.744 107.392 152.541 105.438 152.541 102.329C152.541 99.2197 153.744 97.2979 155.588 97.2979C157.298 97.2979 158.463 98.8916 158.666 101.532H160.025V96.4697H161.681ZM155.588 98.9385C154.697 98.9229 154.134 100.126 154.15 102.329C154.134 104.532 154.697 105.735 155.588 105.72C156.525 105.735 157.088 104.532 157.088 102.329C157.088 100.126 156.525 98.9229 155.588 98.9385ZM171.287 99.6104C171.287 102.235 172.537 104.813 174.787 105.798L173.74 107.188C172.138 106.407 171.013 104.907 170.412 103.063C169.795 105.009 168.646 106.626 167.021 107.454L165.928 106.048C168.224 104.97 169.506 102.251 169.521 99.6104V97.3604H171.287V99.6104ZM177.912 96.2197V110.36H176.193V102.188H173.224V100.782H176.193V96.2197H177.912ZM188.514 98.7197C188.514 100.595 189.639 102.423 191.826 103.173L190.873 104.532C189.35 103.954 188.256 102.853 187.67 101.47C187.053 103.017 185.904 104.243 184.248 104.86L183.326 103.485C185.592 102.72 186.748 100.767 186.764 98.7041V97.0947H188.514V98.7197ZM195.201 96.2354V106.72H193.467V100.767H190.654V99.3447H193.467V96.2354H195.201ZM195.514 108.657V110.063H185.889V105.579H187.654V108.657H195.514ZM199.119 97.5166V100.782H201.416V97.5166H203.026V106.923H197.479V97.5166H199.119ZM199.119 105.517H201.416V102.157H199.119V105.517ZM209.229 96.2197V110.345H207.557V103.11H206.057V109.657H204.416V96.4697H206.057V101.673H207.557V96.2197H209.229ZM222.444 96.2197V104.173H220.725V96.2197H222.444ZM213.288 97.0479V101.892C215.498 101.868 217.405 101.712 219.397 101.282L219.616 102.72C217.366 103.173 215.241 103.345 212.741 103.36H211.538V97.0479H213.288ZM222.444 104.782V110.157H213.116V104.782H222.444ZM214.819 106.142V108.782H220.756V106.142H214.819ZM237.268 101.876V103.251H224.378V101.876H237.268ZM235.737 99.5947V100.97H226.018V96.5791H235.612V97.9697H227.753V99.5947H235.737ZM235.643 104.22V107.767H227.612V108.845H236.034V110.204H225.909V106.517H233.94V105.532H225.893V104.22H235.643ZM245.936 97.6885V98.6885C245.936 99.9541 245.936 101.72 245.546 104.157L243.827 104.017C244.163 101.876 244.202 100.298 244.217 99.0791H238.671V97.6885H245.936ZM242.374 101.72V105.892C243.811 105.837 245.288 105.735 246.639 105.563L246.733 106.86C243.811 107.329 240.577 107.392 238.092 107.376L237.921 105.985C238.757 105.978 239.686 105.97 240.655 105.938V101.72H242.374ZM249.124 96.2197V101.97H251.171V103.438H249.124V110.345H247.374V96.2197H249.124ZM139.267 120.438C142.486 120.438 144.345 121.298 144.361 122.86C144.345 124.438 142.486 125.282 139.267 125.298C136.048 125.282 134.173 124.438 134.173 122.86C134.173 121.298 136.048 120.438 139.267 120.438ZM139.267 121.72C137.111 121.72 135.986 122.126 136.001 122.86C135.986 123.642 137.111 124.001 139.267 124.001C141.454 124.001 142.564 123.642 142.564 122.86C142.564 122.126 141.454 121.72 139.267 121.72ZM145.72 126.048V127.438H132.845V126.048H145.72ZM144.111 128.392V131.845H136.079V132.892H144.501V134.22H134.376V130.61H142.407V129.673H134.361V128.392H144.111ZM157.041 122.47V123.86H150.119V122.47H152.744V120.626H154.462V122.47H157.041ZM153.603 124.61C155.4 124.61 156.681 125.97 156.681 127.892C156.681 129.845 155.4 131.22 153.603 131.22C151.822 131.22 150.509 129.845 150.525 127.892C150.509 125.97 151.822 124.61 153.603 124.61ZM153.603 126.048C152.681 126.048 152.041 126.782 152.056 127.892C152.041 129.032 152.681 129.751 153.603 129.735C154.509 129.751 155.15 129.032 155.15 127.892C155.15 126.782 154.509 126.048 153.603 126.048ZM162.291 120.22V134.345H160.634V127.438H159.259V133.704H157.634V120.517H159.259V126.032H160.634V120.22H162.291ZM175.646 120.22V127.376H173.912V126.142H170.506V124.813H173.912V123.423H170.693C169.802 125.579 167.74 126.985 164.615 127.688L164.006 126.267C167.326 125.579 168.982 124.118 169.224 122.235H164.787V120.829H171.162C171.162 121.274 171.123 121.696 171.068 122.095H173.912V120.22H175.646ZM175.646 127.923V131.642H168.099V132.813H176.021V134.204H166.365V130.345H173.912V129.298H166.349V127.923H175.646ZM188.627 120.188V123.376H190.611V124.782H188.627V127.892H186.892V120.188H188.627ZM188.627 128.517V131.923H181.127V132.923H189.064V134.22H179.408V130.72H186.892V129.782H179.392V128.517H188.627ZM185.877 121.36V122.688H177.502V121.36H180.83V120.11H182.564V121.36H185.877ZM181.689 123.126C183.783 123.142 185.127 124.032 185.142 125.438C185.127 126.892 183.783 127.751 181.689 127.751C179.596 127.751 178.221 126.892 178.221 125.438C178.221 124.032 179.596 123.142 181.689 123.126ZM181.689 124.376C180.596 124.376 179.908 124.767 179.908 125.438C179.908 126.126 180.596 126.501 181.689 126.501C182.783 126.501 183.486 126.126 183.486 125.438C183.486 124.767 182.783 124.376 181.689 124.376ZM206.51 120.86V122.251H202.416C202.572 123.579 204.299 124.845 207.026 125.173L206.369 126.548C203.838 126.243 201.971 125.126 201.213 123.595C200.455 125.118 198.604 126.243 196.072 126.548L195.432 125.173C198.158 124.845 199.862 123.579 200.026 122.251H195.963V120.86H206.51ZM207.682 127.329V128.735H202.229V131.313H200.51V128.735H194.776V127.329H207.682ZM206.26 132.657V134.063H196.338V130.017H198.072V132.657H206.26ZM220.209 120.22V134.36H218.459V120.22H220.209ZM210.944 121.376V124.907H214.366V121.376H216.084V131.032H209.209V121.376H210.944ZM210.944 129.61H214.366V126.267H210.944V129.61ZM233.19 120.22V125.735H235.284V127.188H233.19V134.313H231.456V120.22H233.19ZM229.456 121.688C229.456 125.845 227.737 129.485 223.034 131.798L222.049 130.454C225.487 128.743 227.346 126.337 227.706 123.126H222.815V121.688H229.456ZM247.839 126.079V127.485H244.979V129.954C246.214 129.899 247.448 129.813 248.62 129.688L248.761 130.97C245.651 131.438 242.386 131.47 239.714 131.47L239.495 130.032C240.659 130.04 241.932 130.04 243.245 130.001V127.485H240.479V121.517H247.776V122.892H242.198V126.079H247.839ZM251.198 120.22V134.36H249.464V120.22H251.198ZM264.929 120.22V128.407H263.194V125.829H260.694V124.438H263.194V123.142H260.694V121.735H263.194V120.22H264.929ZM258.226 122.11C258.226 124.048 259.335 125.985 261.522 126.782L260.522 128.157C259.03 127.571 257.96 126.438 257.366 125.032C256.749 126.54 255.624 127.743 254.022 128.36L253.038 126.985C255.319 126.142 256.476 124.204 256.476 122.11V120.735H258.226V122.11ZM258.272 129.376C258.257 130.571 258.804 131.806 260.022 132.595C261.241 131.743 261.788 130.438 261.804 129.376V128.907H263.507V129.376C263.507 130.845 264.366 132.267 266.257 132.86L265.382 134.157C264.015 133.673 263.108 132.767 262.632 131.626C262.163 132.751 261.319 133.751 260.022 134.267C258.702 133.767 257.858 132.798 257.413 131.657C256.905 132.759 256.022 133.665 254.71 134.157L253.866 132.86C255.694 132.235 256.569 130.767 256.585 129.376V128.907H258.272V129.376ZM279.925 125.673V127.095H277.831V134.313H276.097V120.22H277.831V125.673H279.925ZM268.987 121.595V129.392C270.87 129.36 272.878 129.196 275.003 128.751L275.191 130.22C272.816 130.688 270.55 130.829 268.456 130.829H267.269V121.595H268.987ZM293.343 131.204V132.626H280.437V131.204H283.421V127.626C282.296 126.985 281.617 125.978 281.624 124.72C281.609 122.47 283.827 120.985 286.859 120.985C289.906 120.985 292.124 122.47 292.124 124.72C292.124 125.954 291.468 126.946 290.374 127.595V131.204H293.343ZM286.859 122.36C284.749 122.36 283.312 123.251 283.327 124.72C283.312 126.173 284.749 127.079 286.859 127.079C288.968 127.079 290.421 126.173 290.421 124.72C290.421 123.251 288.968 122.36 286.859 122.36ZM285.14 131.204H288.609V128.251C288.07 128.376 287.484 128.438 286.859 128.438C286.249 128.438 285.671 128.376 285.14 128.267V131.204ZM296.496 129.485C296.511 127.501 297.074 126.892 298.058 126.282C298.73 125.86 299.23 125.329 299.23 124.548C299.23 123.673 298.558 123.11 297.699 123.11C296.918 123.11 296.168 123.61 296.121 124.657H294.168C294.214 122.563 295.793 121.485 297.714 121.485C299.824 121.485 301.277 122.657 301.277 124.517C301.277 125.782 300.636 126.61 299.621 127.22C298.714 127.767 298.339 128.313 298.324 129.485V129.626H296.496V129.485ZM297.464 133.079C296.793 133.079 296.246 132.532 296.246 131.86C296.246 131.204 296.793 130.657 297.464 130.657C298.105 130.657 298.668 131.204 298.668 131.86C298.668 132.532 298.105 133.079 297.464 133.079Z" fill="#27272D"/>
<path d="M79.895 123.095C79.895 124.845 81.0981 126.563 83.3481 127.267L82.4575 128.626C80.8559 128.103 79.6919 127.048 79.0512 125.704C78.4106 127.165 77.2153 128.329 75.5356 128.907L74.645 127.532C76.9106 126.782 78.1294 124.954 78.145 123.095V122.688H75.0981V121.298H82.8637V122.688H79.895V123.095ZM86.3012 120.235V130.485H84.5512V120.235H86.3012ZM86.6919 132.657V134.063H76.9575V129.548H78.7075V132.657H86.6919ZM101.11 131.267V132.704H88.2037V131.267H93.7662V128.97H89.735V124.345H97.86V122.595H89.7037V121.188H99.5787V125.72H91.4694V127.548H99.9069V128.97H95.485V131.267H101.11ZM117.04 121.517V122.876C117.024 124.626 117.024 126.595 116.477 129.548L114.727 129.36C115.274 126.61 115.274 124.603 115.29 122.907H106.852V121.517H117.04ZM118.384 131.095V132.517H105.509V131.095H110.259V126.188H111.977V131.095H118.384ZM126.708 121.392V128.11H119.896V121.392H126.708ZM121.614 122.782V126.72H124.989V122.782H121.614ZM130.942 120.235V130.313H129.192V120.235H130.942ZM131.333 132.563V133.97H121.599V129.36H123.349V132.563H131.333Z" fill="#4685FF"/>
<path d="M65.8499 314.843C65.8499 247.422 120.505 192.768 187.925 192.768C255.345 192.768 310 247.422 310 314.843V511.018H65.8499V314.843Z" fill="url(#paint0_linear_3107_8977)"/>
<circle cx="261.089" cy="367" r="17.1385" transform="rotate(28.5583 261.089 367)" fill="#FFE7F2"/>
<path fill-rule="evenodd" clip-rule="evenodd" d="M256.016 374.492C275.171 380.189 291.762 381.234 293.072 376.827C294.383 372.421 279.917 364.23 260.761 358.534C241.606 352.838 225.015 351.792 223.705 356.199C222.394 360.606 236.86 368.796 256.016 374.492ZM256.746 372.037C271.394 376.393 284.086 377.176 285.094 373.787C286.102 370.397 275.044 364.118 260.396 359.761C245.748 355.405 233.056 354.622 232.048 358.012C231.04 361.402 242.097 367.681 256.746 372.037Z" fill="url(#paint1_linear_3107_8977)"/>
<path d="M84.375 244.542L96.9314 229.817L155.42 260.283C155.42 260.283 160.862 263.128 163.321 267.36C165.977 271.93 165.579 279.79 165.579 279.79V511.017H67.75V287.767L84.375 244.542Z" fill="url(#paint2_linear_3107_8977)"/>
<path d="M228.597 200.922C229.164 200.826 230.106 200.988 230.106 200.988C230.274 201.052 230.41 201.111 230.506 201.152C230.506 201.152 230.559 201.176 230.615 201.202C251.332 211.107 270.331 224.54 270.331 224.54C274.698 227.626 280.347 231.806 286.759 237.057C288.14 240.212 289.779 245.231 289.347 251.287C288.143 268.282 271.756 277.684 267.953 279.882C263.083 282.695 252.636 288.731 242.151 284.945C240.394 284.309 233.354 281.768 230.47 274.731C229.084 271.348 229.182 268.205 229.402 266.343C229.431 266.126 229.437 265.804 229.239 265.597C229.019 265.362 228.651 265.388 228.582 265.386C227.7 265.355 221.266 263.082 217.581 260.184C214.531 257.788 211.29 253.369 210.84 247.78C210.318 241.277 213.823 236.373 213.997 236.227C214.011 236.214 214.245 236.036 214.363 235.746C214.363 235.746 214.365 235.743 214.367 235.74C213.129 234.905 211.409 233.503 210.014 231.331C205.833 224.82 208.259 217.129 209.005 215.086C213.68 202.246 228.148 200.799 228.597 200.922Z" fill="url(#paint3_linear_3107_8977)"/>
<path d="M249.459 250.409C248.457 251.961 246.449 252.449 244.973 251.496C243.498 250.544 243.115 248.514 244.117 246.961C245.119 245.408 247.127 244.921 248.602 245.873C250.078 246.825 250.461 248.856 249.459 250.409Z" fill="#2F3137"/>
<path d="M231.803 237.838C230.801 239.391 228.793 239.878 227.318 238.926C225.842 237.974 225.459 235.944 226.461 234.391C227.463 232.838 229.471 232.351 230.947 233.303C232.422 234.255 232.805 236.286 231.803 237.838Z" fill="#2F3137"/>
<path d="M247.192 237.538C245.52 239.886 242.163 240.364 239.694 238.606C237.225 236.848 236.578 233.52 238.25 231.172C238.492 230.831 238.739 230.583 238.739 230.583C239.467 229.861 239.849 230.039 240.201 229.544C240.553 229.049 240.262 228.744 240.704 227.823C240.704 227.823 240.858 227.508 241.1 227.168C242.772 224.82 246.129 224.342 248.598 226.1C251.067 227.858 251.714 231.186 250.042 233.534C249.8 233.874 249.553 234.123 249.553 234.123C248.825 234.845 248.443 234.666 248.091 235.161C247.738 235.656 248.032 235.958 247.588 236.883C247.588 236.883 247.432 237.201 247.192 237.538Z" fill="#6DB0FF"/>
<path d="M245.026 229.888C245.908 230.516 246.065 231.808 245.378 232.773C244.69 233.739 243.418 234.012 242.537 233.385C241.655 232.757 241.497 231.465 242.185 230.5C242.872 229.534 244.144 229.261 245.026 229.888Z" fill="#0046CF"/>
<path d="M198.456 243.747C201.199 245.7 201.839 249.506 199.886 252.249C197.934 254.991 194.128 255.632 191.385 253.679C188.642 251.726 188.002 247.92 189.954 245.178C191.907 242.435 195.713 241.795 198.456 243.747Z" fill="#F0F7FF"/>
<path d="M184.459 245.882C186.29 247.185 186.717 249.725 185.414 251.555C184.111 253.385 181.571 253.813 179.741 252.51C177.911 251.207 177.484 248.667 178.786 246.837C180.089 245.007 182.629 244.579 184.459 245.882Z" fill="#F0F7FF"/>
<path fill-rule="evenodd" clip-rule="evenodd" d="M188.4 183.268C115.996 183.268 57.3 241.963 57.3 314.368V511.018H67.75V511.018H309.05V511.018H319.5V314.368C319.5 241.963 260.805 183.268 188.4 183.268ZM309.05 511.018V315.318C309.05 248.685 255.033 194.668 188.4 194.668C121.767 194.668 67.75 248.685 67.75 315.318V511.018H309.05Z" fill="#D8DCE5"/>
<circle cx="145.175" cy="368.042" r="10.925" fill="#A2ACC2"/>
<path d="M191.15 392.656C190.469 388.49 189.995 384.225 189.417 380.009C189.375 379.547 188.885 376.051 189.743 371.814C190.255 369.415 190.838 368.505 191.512 368.109C192.862 367.317 194.582 368.379 195.19 368.75C200.909 372.254 210.024 397.103 201.363 406.763C199.788 408.524 196.925 410.566 194.844 409.6C192.765 408.531 193.246 405.157 191.15 392.656Z" fill="#E2E6ED"/>
<path d="M136.323 391.505C137.179 387.371 137.832 383.129 138.586 378.942C138.647 378.482 139.284 375.009 138.605 370.74C138.194 368.322 137.65 367.388 136.992 366.964C135.677 366.116 133.913 367.104 133.291 367.45C127.43 370.71 117.279 395.155 125.527 405.17C127.026 406.996 129.8 409.156 131.92 408.278C134.043 407.297 133.704 403.907 136.323 391.505Z" fill="#E2E6ED"/>
<path d="M101.718 462.287C101.718 462.287 111.162 439.776 114.496 432.362C117.83 424.947 120.064 416.228 121.343 409.027C122.622 401.826 132.282 376.397 153.493 372.075C174.704 367.754 197.793 378.953 202.846 404.434C207.898 429.916 199.42 460.137 196.162 473.653C192.905 487.169 189.133 488.577 182.188 489.763C175.242 490.95 163.83 492.454 159.309 495.383C154.786 498.364 148.22 498.585 136.981 491.838C125.742 485.091 120.648 478.679 115.249 477.028C109.849 475.427 101.28 473.351 101.718 462.287Z" fill="url(#paint4_linear_3107_8977)"/>
<path d="M150.107 413.683C152.598 413.736 154.66 411.713 154.713 409.166C154.767 406.619 152.792 404.512 150.301 404.46C147.811 404.408 145.749 406.43 145.695 408.977C145.642 411.524 147.617 413.631 150.107 413.683Z" fill="#4D4D4D"/>
<path d="M175.778 414.223C178.268 414.276 180.331 412.253 180.384 409.706C180.438 407.159 178.462 405.052 175.972 405C173.481 404.948 171.419 406.97 171.366 409.517C171.312 412.064 173.288 414.171 175.778 414.223Z" fill="#4D4D4D"/>
<path d="M189.039 502.12L152.002 482.977C150.351 482.123 149.849 479.783 150.886 477.776L177.814 425.678C178.851 423.671 181.051 422.727 182.701 423.58L219.739 442.724C221.39 443.577 221.892 445.917 220.854 447.924L193.929 500.018C192.892 502.024 190.69 502.973 189.039 502.12Z" fill="#C4C9D6"/>
<path fill-rule="evenodd" clip-rule="evenodd" d="M197.844 429.466L198.788 425.938C198.896 425.731 199.152 425.653 199.355 425.758L208.01 430.231C208.217 430.338 208.295 430.595 208.19 430.798L205.859 433.609L210.907 436.218C211.18 436.359 211.287 436.695 211.146 436.967L209.47 440.21C209.329 440.482 208.993 440.589 208.721 440.449L190.614 431.09C190.342 430.949 190.235 430.613 190.375 430.341L192.052 427.098C192.192 426.826 192.528 426.719 192.8 426.859L197.844 429.466Z" fill="#9FBFFF"/>
<path d="M211.019 300.152C212.245 298.892 214.367 299.936 214.116 301.675C214.004 302.453 214.405 303.215 215.111 303.562C216.688 304.338 216.35 306.679 214.618 306.978C213.844 307.112 213.244 307.729 213.131 308.507C212.881 310.246 210.55 310.649 209.731 309.094C209.364 308.399 208.592 308.019 207.817 308.153C206.085 308.452 204.982 306.36 206.207 305.1C206.755 304.536 206.878 303.684 206.512 302.989C205.692 301.434 207.341 299.739 208.918 300.515C209.623 300.862 210.471 300.715 211.019 300.152Z" fill="#DFD3EF"/>
<path d="M272.019 463.152C273.245 461.892 275.367 462.936 275.116 464.675C275.004 465.453 275.405 466.215 276.111 466.562C277.688 467.338 277.35 469.679 275.618 469.978C274.844 470.112 274.244 470.729 274.131 471.507C273.881 473.246 271.55 473.649 270.731 472.094C270.364 471.399 269.592 471.019 268.817 471.153C267.085 471.452 265.982 469.36 267.207 468.1C267.755 467.536 267.878 466.684 267.512 465.989C266.692 464.434 268.341 462.739 269.918 463.515C270.623 463.862 271.471 463.715 272.019 463.152Z" fill="#57A2F8"/>
<path d="M281.76 335.466C282.499 334.706 283.78 335.336 283.629 336.386C283.561 336.856 283.804 337.316 284.229 337.525C285.181 337.993 284.978 339.406 283.932 339.587C283.465 339.668 283.102 340.04 283.035 340.51C282.883 341.56 281.476 341.803 280.982 340.865C280.76 340.445 280.294 340.215 279.826 340.296C278.781 340.477 278.115 339.214 278.855 338.453C279.185 338.113 279.26 337.599 279.038 337.179C278.543 336.24 279.539 335.217 280.491 335.685C280.916 335.895 281.429 335.806 281.76 335.466Z" fill="#FFF973"/>
<path d="M298.391 257.881C305.315 262.811 306.932 272.42 302.002 279.344C297.072 286.268 287.463 287.885 280.539 282.955C273.615 278.026 271.998 268.416 276.928 261.492C281.857 254.568 291.467 252.951 298.391 257.881Z" fill="url(#paint5_linear_3107_8977)"/>
<path d="M205.166 193.759C210.445 197.517 211.678 204.842 207.92 210.121C204.161 215.399 196.836 216.632 191.558 212.874C186.279 209.116 185.046 201.79 188.804 196.512C192.563 191.233 199.888 190.001 205.166 193.759Z" fill="url(#paint6_linear_3107_8977)"/>
</g>
<defs>
<filter id="filter0_f_3107_8977" x="58.2617" y="5.16113" width="495.067" height="495.067" filterUnits="userSpaceOnUse" color-interpolation-filters="sRGB">
<feFlood flood-opacity="0" result="BackgroundImageFix"/>
<feBlend mode="normal" in="SourceGraphic" in2="BackgroundImageFix" result="shape"/>
<feGaussianBlur stdDeviation="60" result="effect1_foregroundBlur_3107_8977"/>
</filter>
<filter id="filter1_f_3107_8977" x="-178.329" y="23.3721" width="518.916" height="518.916" filterUnits="userSpaceOnUse" color-interpolation-filters="sRGB">
<feFlood flood-opacity="0" result="BackgroundImageFix"/>
<feBlend mode="normal" in="SourceGraphic" in2="BackgroundImageFix" result="shape"/>
<feGaussianBlur stdDeviation="60" result="effect1_foregroundBlur_3107_8977"/>
</filter>
<filter id="filter2_f_3107_8977" x="-81.196" y="172.192" width="518.916" height="518.916" filterUnits="userSpaceOnUse" color-interpolation-filters="sRGB">
<feFlood flood-opacity="0" result="BackgroundImageFix"/>
<feBlend mode="normal" in="SourceGraphic" in2="BackgroundImageFix" result="shape"/>
<feGaussianBlur stdDeviation="60" result="effect1_foregroundBlur_3107_8977"/>
</filter>
<linearGradient id="paint0_linear_3107_8977" x1="187.925" y1="192.768" x2="187.925" y2="618.455" gradientUnits="userSpaceOnUse">
<stop stop-color="#509DF8"/>
<stop offset="0.785" stop-color="#C2F4FF"/>
</linearGradient>
<linearGradient id="paint1_linear_3107_8977" x1="265.242" y1="363.895" x2="258.954" y2="375.919" gradientUnits="userSpaceOnUse">
<stop stop-color="#FFE7F2"/>
<stop offset="0.66" stop-color="#EFC8EB"/>
</linearGradient>
<linearGradient id="paint2_linear_3107_8977" x1="116.675" y1="283.361" x2="116.675" y2="511.017" gradientUnits="userSpaceOnUse">
<stop stop-color="#D8DCE5"/>
<stop offset="1" stop-color="#A2ABC2"/>
</linearGradient>
<linearGradient id="paint3_linear_3107_8977" x1="272.402" y1="203.491" x2="248.182" y2="237.51" gradientUnits="userSpaceOnUse">
<stop stop-color="#BEE0FF"/>
<stop offset="1" stop-color="#F0F7FF"/>
</linearGradient>
<linearGradient id="paint4_linear_3107_8977" x1="99.5992" y1="546.784" x2="101.274" y2="467.093" gradientUnits="userSpaceOnUse">
<stop stop-color="white" stop-opacity="0"/>
<stop offset="1" stop-color="white"/>
</linearGradient>
<linearGradient id="paint5_linear_3107_8977" x1="303.316" y1="250.963" x2="292.105" y2="266.71" gradientUnits="userSpaceOnUse">
<stop stop-color="#BEE0FF"/>
<stop offset="1" stop-color="#F0F7FF"/>
</linearGradient>
<linearGradient id="paint6_linear_3107_8977" x1="208.921" y1="188.485" x2="200.375" y2="200.489" gradientUnits="userSpaceOnUse">
<stop stop-color="#BEE0FF"/>
<stop offset="1" stop-color="#F0F7FF"/>
</linearGradient>
<clipPath id="clip0_3107_8977">
<rect width="375" height="667" fill="white"/>
</clipPath>
</defs>
</svg>
