<svg width="118" height="118" viewBox="0 0 118 118" fill="none" xmlns="http://www.w3.org/2000/svg">
<g clip-path="url(#clip0_2517_5223)">
<rect x="0.928223" y="0.5" width="117" height="117" fill="#F5F6F8"/>
<path opacity="0.6" d="M82.7557 51.1814C82.1186 47.88 81.7016 44.5321 81.1571 41.2075C81.0992 40.8484 80.6474 38.0798 81.2845 34.7435C81.6437 32.8437 82.0954 32.1139 82.6631 31.7664C83.7404 31.1177 85.1305 31.9054 85.6518 32.2066C90.3318 34.8709 98.1047 54.3439 91.2933 62.0937C90.0422 63.5186 87.7601 65.1519 86.092 64.4337C84.3428 63.6923 84.6671 61.0164 82.7557 51.1814Z" fill="#82828E" fill-opacity="0.54"/>
<path opacity="0.6" d="M37.8552 51.1814C38.4923 47.88 38.9094 44.5321 39.4538 41.2075C39.5118 40.8484 39.9635 38.0798 39.3264 34.7435C38.9673 32.8437 38.5155 32.1139 37.9479 31.7664C36.8706 31.1177 35.4805 31.9054 34.9592 32.2066C30.2792 34.8709 22.5062 54.3439 29.3177 62.0937C30.5688 63.5186 32.8509 65.1519 34.519 64.4337C36.2682 63.6923 35.9438 61.0164 37.8552 51.1814Z" fill="#82828E" fill-opacity="0.54"/>
<path d="M20.1668 115.844C20.4448 109.357 20.9131 100.479 22.338 89.0569C23.8092 77.2526 24.8537 70.699 26.823 65.1965C29.6032 57.4351 35.4231 39.2153 51.9653 35.5547C63.5842 32.983 76.0487 36.0991 84.2387 44.6946C89.023 49.7221 91.3992 55.1354 92.9283 59.9081C94.3416 64.3101 95.606 68.0764 96.2315 81.792C97.4015 107.127 95.1858 111.813 92.6257 116.18C91.6179 117.895 88.7566 122.783 83.0224 125.853C81.2269 126.815 79.8831 127.487 77.1492 127.996C71.5657 129.05 62.3678 130.406 58.7536 132.827C55.1393 135.248 49.857 135.538 40.6591 130.417C31.4613 125.286 27.2331 120.316 22.8659 119.111C17.1201 117.524 13.2047 114.315 13.3553 113.956C13.4827 113.62 16.9232 114.721 20.1668 115.844Z" fill="url(#paint0_linear_2517_5223)"/>
<path d="M53.1702 66.6973C54.8528 66.6973 56.2168 65.3332 56.2168 63.6506C56.2168 61.968 54.8528 60.604 53.1702 60.604C51.4876 60.604 50.1235 61.968 50.1235 63.6506C50.1235 65.3332 51.4876 66.6973 53.1702 66.6973Z" fill="#82828F"/>
<path d="M69.9797 66.6973C71.6623 66.6973 73.0264 65.3332 73.0264 63.6506C73.0264 61.968 71.6623 60.604 69.9797 60.604C68.2971 60.604 66.9331 61.968 66.9331 63.6506C66.9331 65.3332 68.2971 66.6973 69.9797 66.6973Z" fill="#82828F"/>
</g>
<defs>
<linearGradient id="paint0_linear_2517_5223" x1="54.9518" y1="80.7559" x2="54.9518" y2="263.995" gradientUnits="userSpaceOnUse">
<stop stop-color="white"/>
<stop offset="1" stop-color="#D3D4D8"/>
</linearGradient>
<clipPath id="clip0_2517_5223">
<rect width="117" height="117" fill="white" transform="translate(0.928223 0.5)"/>
</clipPath>
</defs>
</svg>
