<svg width="57" height="15" viewBox="0 0 57 15" fill="none" xmlns="http://www.w3.org/2000/svg">
<path d="M4.37055 11.788C3.53674 11.788 2.80211 11.6392 2.16978 11.3448C1.53434 11.0503 1.03219 10.6319 0.660232 10.0894C0.28827 9.54696 0.068193 8.91463 0 8.1924H1.51264C1.58704 8.68525 1.74822 9.10681 1.99929 9.45397C2.24727 9.80114 2.57583 10.0677 2.97879 10.2506C3.38175 10.4335 3.8498 10.5265 4.37985 10.5265C4.8262 10.5265 5.21986 10.4521 5.56393 10.3002C5.90489 10.1483 6.17456 9.93442 6.36674 9.65855C6.55892 9.38268 6.65811 9.06341 6.65811 8.70385C6.65811 8.28849 6.57442 7.94753 6.40394 7.68096C6.23346 7.41438 5.96069 7.18501 5.58872 6.99903C5.21366 6.81305 4.69912 6.63946 4.03888 6.48138C3.20507 6.2799 2.53554 6.03503 2.02719 5.74986C1.51884 5.46469 1.14998 5.11132 0.920605 4.69906C0.691229 4.28681 0.573441 3.78466 0.573441 3.20192C0.573441 2.61918 0.722225 2.07983 1.02289 1.61798C1.32356 1.15613 1.74822 0.796567 2.29686 0.542393C2.84551 0.28822 3.48094 0.161133 4.20317 0.161133C4.92539 0.161133 5.53293 0.278921 6.06297 0.520696C6.58992 0.759371 7.01148 1.11273 7.32454 1.57459C7.63761 2.03644 7.83289 2.60368 7.90728 3.26701H6.43494C6.38224 2.86405 6.26135 2.52309 6.07537 2.24722C5.88939 1.97135 5.64142 1.76057 5.33145 1.61798C5.02148 1.4754 4.64642 1.4041 4.21247 1.4041C3.77851 1.4041 3.40965 1.4723 3.09348 1.61178C2.77731 1.75127 2.53554 1.94655 2.36506 2.20072C2.19457 2.4549 2.11088 2.75556 2.11088 3.09963C2.11088 3.44369 2.17908 3.73816 2.31546 3.98304C2.45185 4.22791 2.67502 4.43559 2.98809 4.61227C3.30116 4.78896 3.73202 4.93774 4.27756 5.06483C5.20126 5.2818 5.94829 5.54528 6.51863 5.85215C7.08897 6.15901 7.51362 6.53718 7.7895 6.98663C8.06537 7.43608 8.20485 7.97853 8.20485 8.61396C8.20485 9.2494 8.04367 9.79494 7.7182 10.2754C7.39274 10.7558 6.94328 11.1278 6.36364 11.3913C5.784 11.6547 5.12067 11.7849 4.37365 11.7849L4.37055 11.788Z" fill="#231F20"/>
<path d="M12.6371 11.7695C11.8095 11.7695 11.0749 11.5898 10.4394 11.2333C9.80401 10.8768 9.30497 10.3716 8.9516 9.72065C8.59514 9.06972 8.41846 8.31959 8.41846 7.47028C8.41846 6.62097 8.60444 5.88015 8.9795 5.22921C9.35456 4.57828 9.85981 4.07613 10.4952 3.71967C11.1338 3.36321 11.8343 3.18652 12.5968 3.18652C13.4089 3.18652 14.1219 3.35701 14.7325 3.70107C15.3431 4.04513 15.8143 4.51939 16.146 5.13002C16.4776 5.74066 16.645 6.43809 16.645 7.22541C16.645 7.2998 16.645 7.37729 16.6419 7.45788C16.6388 7.53847 16.6357 7.61907 16.6295 7.70586C16.6233 7.75855 16.6202 7.81125 16.6171 7.86084C16.614 7.91044 16.6109 7.95383 16.6047 7.99103H9.51574V6.81315H15.5136L15.2502 6.93404C15.2502 6.44119 15.1386 6.00103 14.9185 5.61047C14.6984 5.22301 14.3884 4.92234 13.9855 4.70537C13.5856 4.49149 13.1238 4.383 12.603 4.383C12.0823 4.383 11.6235 4.49459 11.2206 4.71777C10.8207 4.94094 10.5014 5.25401 10.2659 5.65387C10.0303 6.05373 9.897 6.51868 9.87221 7.04253V7.72755C9.87221 8.2855 9.98689 8.77835 10.2194 9.2061C10.4518 9.63386 10.7742 9.96552 11.1896 10.2011C11.6049 10.4367 12.0885 10.5545 12.634 10.5545C13.037 10.5545 13.4089 10.4925 13.7437 10.3716C14.0816 10.2507 14.3636 10.0771 14.593 9.85084C14.8224 9.62456 14.9805 9.36109 15.0704 9.05732H16.5117C16.3846 9.60906 16.1429 10.0895 15.7833 10.4987C15.4237 10.9078 14.9743 11.2209 14.4349 11.441C13.8956 11.661 13.2943 11.7726 12.634 11.7726L12.6371 11.7695Z" fill="#231F20"/>
<path d="M21.5336 11.7693C20.6935 11.7693 19.9403 11.5833 19.2708 11.2145C18.6013 10.8456 18.0774 10.3342 17.6992 9.68013C17.3211 9.0261 17.1289 8.29147 17.1289 7.47316C17.1289 6.65484 17.318 5.92022 17.6992 5.26619C18.0774 4.61215 18.6044 4.10381 19.2708 3.73184C19.9372 3.35988 20.6935 3.177 21.5336 3.177C22.3736 3.177 23.1268 3.36298 23.7963 3.73184C24.4658 4.10071 24.9897 4.61215 25.3679 5.26619C25.746 5.92022 25.9382 6.65484 25.9382 7.47316C25.9382 8.29147 25.7491 9.0261 25.3679 9.68013C24.9897 10.3342 24.4627 10.8456 23.7963 11.2145C23.1268 11.5833 22.3736 11.7693 21.5336 11.7693ZM21.5336 10.5356C22.107 10.5356 22.6153 10.4055 23.0586 10.1451C23.5018 9.88471 23.8459 9.52515 24.0939 9.06329C24.3419 8.60144 24.4627 8.0745 24.4627 7.47936C24.4627 6.88422 24.3388 6.35727 24.0939 5.89542C23.8459 5.43357 23.5018 5.07091 23.0586 4.81053C22.6153 4.55016 22.107 4.41997 21.5336 4.41997C20.9601 4.41997 20.4518 4.55016 20.0085 4.81053C19.5653 5.07091 19.2212 5.43047 18.9732 5.89542C18.7252 6.35727 18.6013 6.88422 18.6013 7.47936C18.6013 8.0745 18.7252 8.60144 18.9732 9.06329C19.2212 9.52515 19.5653 9.88781 20.0085 10.1451C20.4518 10.4055 20.9601 10.5356 21.5336 10.5356Z" fill="#231F20"/>
<path d="M26.3721 11.5153V3.44062H27.4322C27.4415 3.59561 27.4539 3.75369 27.4694 3.92107C27.4818 4.08846 27.4973 4.24034 27.5128 4.37983C27.5345 4.51931 27.5623 4.6154 27.5964 4.6712C27.6305 4.72699 27.6801 4.75489 27.7452 4.75489C27.7917 4.75489 27.8351 4.74249 27.8692 4.71459C27.9033 4.68669 27.9529 4.6309 28.018 4.53791C28.3373 4.09156 28.7154 3.75369 29.1556 3.52741C29.5957 3.30114 30.1196 3.18335 30.724 3.18335C31.3781 3.18335 31.9329 3.31664 32.3917 3.58321C32.8504 3.84978 33.2007 4.23414 33.4424 4.74249C33.6842 5.25084 33.8051 5.86457 33.8051 6.5868V11.5153H32.3793V6.74488C32.3793 6.25513 32.3049 5.83978 32.153 5.49571C32.0011 5.15165 31.7841 4.88817 31.4958 4.71149C31.2107 4.53481 30.8635 4.44492 30.4605 4.44492C30.0359 4.44492 29.6577 4.52861 29.3292 4.69289C29.0006 4.85718 28.7185 5.10515 28.4861 5.43372C28.2412 5.77778 28.0676 6.18384 27.9591 6.64879C27.8537 7.11374 27.801 7.63139 27.801 8.20483V11.5184H26.3752L26.3721 11.5153Z" fill="#231F20"/>
<path d="M35.8108 14.9405L37.404 11.2364V11.7943L33.8208 3.44067H35.4202L38.2564 10.353H37.8969L40.668 3.44067H42.1558L37.2738 14.9405H35.8077H35.8108Z" fill="#231F20"/>
<path d="M44.716 11.7695C44.1271 11.7695 43.6063 11.6672 43.1507 11.4626C42.6981 11.258 42.3447 10.9604 42.0906 10.5668C41.8364 10.1731 41.7124 9.70818 41.7124 9.16573C41.7124 8.66668 41.8302 8.24513 42.0658 7.90106C42.3013 7.557 42.6578 7.28423 43.1321 7.08895C43.6063 6.89367 44.2045 6.77278 44.9206 6.72938C45.6521 6.68599 46.2534 6.63329 46.7246 6.5713C47.1957 6.50621 47.5026 6.43491 47.6514 6.35742V7.41751C47.4933 7.5074 47.2081 7.5849 46.799 7.64379C46.3898 7.70578 45.7947 7.76778 45.0167 7.82977C44.5641 7.86697 44.2014 7.93826 43.9256 8.04365C43.6497 8.14904 43.4482 8.29472 43.3211 8.4745C43.1941 8.65428 43.129 8.88366 43.129 9.15953C43.129 9.4726 43.2033 9.73917 43.3552 9.95615C43.5071 10.1731 43.721 10.3374 43.9969 10.4459C44.2727 10.5544 44.5982 10.6102 44.9671 10.6102C45.4444 10.6102 45.8691 10.5141 46.241 10.3188C46.613 10.1266 46.9044 9.80117 47.1182 9.35171C47.236 9.10684 47.3228 8.83717 47.3817 8.5427C47.4406 8.24823 47.4685 7.91036 47.4685 7.526V6.50621C47.4685 5.81188 47.298 5.28183 46.954 4.92227C46.613 4.55961 46.1201 4.37983 45.4754 4.37983C44.9237 4.37983 44.468 4.50691 44.1085 4.76109C43.7489 5.01526 43.5133 5.36552 43.3955 5.81188H41.9542C42.0658 5.28493 42.2796 4.82618 42.5958 4.42942C42.912 4.03266 43.318 3.72579 43.814 3.50882C44.3099 3.29184 44.8741 3.18335 45.5064 3.18335C46.6068 3.18335 47.4375 3.47782 48.0079 4.06676C48.5782 4.6557 48.8603 5.50191 48.8603 6.6085V11.5153H47.825C47.8188 11.4347 47.8157 11.3603 47.8126 11.2828C47.8126 11.2084 47.8033 11.1371 47.794 11.0689C47.7847 10.9573 47.7723 10.8551 47.7568 10.7621C47.7444 10.6691 47.7258 10.5978 47.7041 10.5513C47.6824 10.4924 47.6576 10.449 47.6328 10.4211C47.6049 10.3932 47.5677 10.3777 47.5212 10.3777C47.4623 10.3777 47.4127 10.3963 47.3693 10.4304C47.3259 10.4645 47.2701 10.5327 47.2019 10.635C46.9416 11.0131 46.6037 11.2952 46.1852 11.4874C45.7699 11.6796 45.277 11.7726 44.7067 11.7726L44.716 11.7695Z" fill="#231F20"/>
<path d="M49.7744 11.5153V0H51.2003V11.5153H49.7744ZM55.0563 11.5153L51.1073 7.46093L54.9943 3.43755H56.8169L52.5486 7.7709L52.6757 7.13236L56.9998 11.5122H55.0563V11.5153Z" fill="#231F20"/>
</svg>
