<svg width="86" height="86" viewBox="0 0 86 86" fill="none" xmlns="http://www.w3.org/2000/svg">
<g clip-path="url(#clip0_2517_10738)">
<rect width="86" height="86" fill="#F5F6F8"/>
<path d="M7.57888 71.8311C7.83756 71.976 8.52381 72.7536 8.52381 72.7536C8.69421 72.7971 9.76111 74.3656 9.86113 74.3874C9.86113 74.3874 18.968 85.8106 19.0273 85.8214C34.4158 92.0269 50.7009 92.0269 50.7009 92.0269C55.9167 92.045 71.2043 82.6429 76.7341 76.8918C79.6162 75.2025 81.9193 69.2437 85.0014 64.2952C93.6586 50.4141 85.9571 34.0316 84.179 30.2178C81.9008 25.3346 77.0146 14.8576 66.5422 11.9973C64.7863 11.5188 57.7553 9.59738 51.4837 13.4728C48.4683 15.3362 46.768 17.834 45.89 19.4037C45.79 19.5886 45.6122 19.8423 45.3381 19.8931C45.0306 19.9547 44.7528 19.73 44.6972 19.6937C43.9785 19.2297 37.581 17.4352 33.0134 17.6491C29.2349 17.8231 24.1598 19.4653 20.6406 23.5619C16.5472 28.3291 16.5583 34.0824 16.6139 34.2926C16.6176 34.3107 16.7028 34.579 16.6324 34.869C16.6324 34.869 16.6324 34.8727 16.6324 34.8763C15.1766 34.84 13.0169 34.9778 10.6794 35.895C3.67434 38.6429 1.25165 45.9659 0.688574 47.9671C-2.86027 60.5395 7.15287 71.6788 7.57888 71.8311Z" fill="url(#paint0_linear_2517_10738)"/>
<path d="M32.8932 55.9945C34.6146 55.9945 36.0101 54.599 36.0101 52.8776C36.0101 51.1562 34.6146 49.7607 32.8932 49.7607C31.1718 49.7607 29.7763 51.1562 29.7763 52.8776C29.7763 54.599 31.1718 55.9945 32.8932 55.9945Z" fill="#5E5E6E" fill-opacity="0.76"/>
<path d="M54.385 55.0943C56.1503 55.0943 57.5813 53.6632 57.5813 51.898C57.5813 50.1327 56.1503 48.7017 54.385 48.7017C52.6198 48.7017 51.1887 50.1327 51.1887 51.898C51.1887 53.6632 52.6198 55.0943 54.385 55.0943Z" fill="#5E5E6E" fill-opacity="0.76"/>
<path d="M48.4348 59.2941C48.4348 56.8697 46.3148 54.9019 43.6947 54.9019C41.0746 54.9019 38.9546 56.866 38.9546 59.2941C38.9546 59.6456 39.0054 59.9355 39.0054 59.9355C39.1576 60.7835 39.5127 60.8487 39.5127 61.3597C39.5127 61.8707 39.154 61.9359 39.0054 62.7839C39.0054 62.7839 38.9546 63.0738 38.9546 63.4253C38.9546 65.8498 41.0746 67.8175 43.6947 67.8175C46.3148 67.8175 48.4348 65.8534 48.4348 63.4253C48.4348 63.0738 48.3841 62.7839 48.3841 62.7839C48.2319 61.9359 47.8768 61.867 47.8768 61.3597C47.8768 60.8487 48.2319 60.7835 48.3841 59.9355C48.3841 59.9391 48.4348 59.6456 48.4348 59.2941Z" fill="#DADAE2"/>
<path d="M43.6947 63.4583C44.8516 63.4583 45.7894 62.5205 45.7894 61.3637C45.7894 60.2068 44.8516 59.269 43.6947 59.269C42.5379 59.269 41.6001 60.2068 41.6001 61.3637C41.6001 62.5205 42.5379 63.4583 43.6947 63.4583Z" fill="#919191" fill-opacity="0.43"/>
</g>
<defs>
<linearGradient id="paint0_linear_2517_10738" x1="44.5187" y1="39.5937" x2="44.5187" y2="118.191" gradientUnits="userSpaceOnUse">
<stop stop-color="white"/>
<stop offset="1" stop-color="#EEEFF4"/>
</linearGradient>
<clipPath id="clip0_2517_10738">
<rect width="86" height="86" fill="white"/>
</clipPath>
</defs>
</svg>
