<svg width="263" height="329" viewBox="0 0 263 329" fill="none" xmlns="http://www.w3.org/2000/svg">
<path d="M8.84985 131.843C8.84985 64.4224 63.5047 9.76758 130.925 9.76758C198.345 9.76758 253 64.4224 253 131.843V328.018H8.84985V131.843Z" fill="url(#paint0_linear_3107_8847)"/>
<circle cx="204.089" cy="184" r="17.1385" transform="rotate(28.5583 204.089 184)" fill="#FFE7F2"/>
<path fill-rule="evenodd" clip-rule="evenodd" d="M199.016 191.492C218.171 197.189 234.762 198.234 236.072 193.827C237.383 189.421 222.917 181.23 203.761 175.534C184.606 169.838 168.015 168.792 166.705 173.199C165.394 177.606 179.86 185.796 199.016 191.492ZM199.746 189.037C214.394 193.393 227.086 194.176 228.094 190.787C229.102 187.397 218.044 181.118 203.396 176.761C188.748 172.405 176.056 171.622 175.048 175.012C174.04 178.402 185.097 184.681 199.746 189.037Z" fill="url(#paint1_linear_3107_8847)"/>
<path d="M27.375 61.5424L39.9314 46.8174L98.4196 77.2827C98.4196 77.2827 103.862 80.1279 106.321 84.3599C108.977 88.9303 108.579 96.7897 108.579 96.7897V328.017H10.75V104.767L27.375 61.5424Z" fill="url(#paint2_linear_3107_8847)"/>
<path d="M171.597 17.922C172.164 17.8265 173.106 17.9883 173.106 17.9883C173.274 18.0525 173.41 18.1115 173.506 18.1524C173.506 18.1524 173.559 18.1761 173.615 18.2021C194.332 28.1073 213.331 41.5399 213.331 41.5399C217.698 44.626 223.347 48.8064 229.759 54.0568C231.14 57.2124 232.779 62.2308 232.347 68.2869C231.143 85.282 214.756 94.6843 210.953 96.8819C206.083 99.6949 195.636 105.731 185.151 101.945C183.394 101.309 176.354 98.7682 173.47 91.7313C172.084 88.3479 172.182 85.205 172.402 83.3432C172.431 83.1259 172.437 82.8036 172.239 82.5973C172.019 82.3618 171.651 82.3884 171.582 82.3863C170.7 82.355 164.266 80.0823 160.581 77.1837C157.531 74.7883 154.29 70.3689 153.84 64.7799C153.318 58.2771 156.823 53.3735 156.997 53.2271C157.011 53.2138 157.245 53.0355 157.363 52.7461C157.363 52.7461 157.365 52.743 157.367 52.74C156.129 51.9052 154.409 50.5034 153.014 48.3306C148.833 41.8198 151.259 34.1292 152.005 32.0864C156.68 19.246 171.148 17.7986 171.597 17.922Z" fill="url(#paint3_linear_3107_8847)"/>
<path d="M192.459 67.4087C191.457 68.9615 189.449 69.4485 187.973 68.4965C186.498 67.5444 186.115 65.5139 187.117 63.961C188.119 62.4082 190.127 61.9212 191.602 62.8732C193.078 63.8253 193.461 65.8559 192.459 67.4087Z" fill="#2F3137"/>
<path d="M174.803 54.8384C173.801 56.3912 171.793 56.8782 170.318 55.9262C168.842 54.9741 168.459 52.9435 169.461 51.3907C170.463 49.8379 172.471 49.3509 173.947 50.3029C175.422 51.255 175.805 53.2855 174.803 54.8384Z" fill="#2F3137"/>
<path d="M190.192 54.5378C188.52 56.8861 185.163 57.3638 182.694 55.6059C180.225 53.8481 179.578 50.52 181.25 48.1716C181.492 47.8313 181.739 47.5828 181.739 47.5828C182.467 46.8611 182.849 47.0393 183.201 46.5443C183.553 46.0492 183.262 45.7441 183.704 44.8229C183.704 44.8229 183.858 44.5083 184.1 44.1679C185.772 41.8196 189.129 41.3419 191.598 43.0998C194.067 44.8576 194.714 48.1857 193.042 50.5341C192.8 50.8744 192.553 51.1229 192.553 51.1229C191.825 51.8446 191.443 51.6664 191.091 52.1614C190.738 52.6565 191.032 52.9585 190.588 53.8828C190.588 53.8828 190.432 54.2005 190.192 54.5378Z" fill="#6DB0FF"/>
<path d="M188.026 46.8884C188.908 47.5162 189.065 48.8077 188.378 49.7732C187.69 50.7387 186.418 51.0125 185.537 50.3847C184.655 49.7569 184.497 48.4654 185.185 47.4999C185.872 46.5344 187.144 46.2607 188.026 46.8884Z" fill="#0046CF"/>
<path d="M141.456 60.7472C144.199 62.6998 144.839 66.506 142.886 69.2486C140.934 71.9913 137.128 72.6317 134.385 70.6791C131.642 68.7265 131.002 64.9202 132.954 62.1776C134.907 59.435 138.713 58.7946 141.456 60.7472Z" fill="#F0F7FF"/>
<path d="M127.459 62.8822C129.29 64.1851 129.717 66.725 128.414 68.5551C127.111 70.3852 124.571 70.8126 122.741 69.5096C120.911 68.2066 120.484 65.6668 121.786 63.8367C123.089 62.0065 125.629 61.5792 127.459 62.8822Z" fill="#F0F7FF"/>
<path fill-rule="evenodd" clip-rule="evenodd" d="M131.4 0.267578C58.9955 0.267578 0.300049 58.963 0.300049 131.368V328.018H10.75V328.018H252.05V328.018H262.5V131.368C262.5 58.963 203.805 0.267578 131.4 0.267578ZM252.05 328.018V132.318C252.05 65.6848 198.033 11.668 131.4 11.668C64.7669 11.668 10.75 65.6849 10.75 132.318V328.018H252.05Z" fill="#D8DCE5"/>
<circle cx="88.175" cy="185.042" r="10.925" fill="#A2ACC2"/>
<path d="M134.15 209.656C133.469 205.49 132.995 201.225 132.417 197.009C132.375 196.547 131.885 193.051 132.743 188.814C133.255 186.415 133.838 185.505 134.512 185.109C135.862 184.317 137.582 185.379 138.19 185.75C143.909 189.254 153.024 214.103 144.363 223.763C142.788 225.524 139.925 227.566 137.844 226.6C135.765 225.531 136.246 222.157 134.15 209.656Z" fill="#E2E6ED"/>
<path d="M79.3227 208.505C80.1785 204.371 80.8316 200.129 81.586 195.942C81.6469 195.482 82.2838 192.009 81.6046 187.74C81.194 185.322 80.6497 184.388 79.9922 183.964C78.6772 183.116 76.9135 184.104 76.2911 184.45C70.4298 187.71 60.2786 212.155 68.5266 222.17C70.0261 223.996 72.8002 226.156 74.9204 225.278C77.0428 224.297 76.704 220.907 79.3227 208.505Z" fill="#E2E6ED"/>
<path d="M44.7179 279.287C44.7179 279.287 54.162 256.776 57.4961 249.362C60.8303 241.947 63.064 233.228 64.3431 226.027C65.6223 218.826 75.2815 193.397 96.4928 189.075C117.704 184.754 140.793 195.953 145.846 221.434C150.898 246.916 142.42 277.137 139.162 290.653C135.905 304.169 132.133 305.577 125.188 306.763C118.242 307.95 106.83 309.454 102.309 312.383C97.7861 315.364 91.2198 315.585 79.9811 308.838C68.7424 302.091 63.6484 295.679 58.2492 294.028C52.8489 292.427 44.2803 290.351 44.7179 279.287Z" fill="url(#paint4_linear_3107_8847)"/>
<path d="M93.1073 230.683C95.5977 230.736 97.6599 228.713 97.7134 226.166C97.7669 223.619 95.7915 221.512 93.3012 221.46C90.8108 221.408 88.7486 223.43 88.6951 225.977C88.6416 228.524 90.617 230.631 93.1073 230.683Z" fill="#4D4D4D"/>
<path d="M118.778 231.223C121.268 231.276 123.331 229.253 123.384 226.706C123.438 224.159 121.462 222.052 118.972 222C116.481 221.948 114.419 223.97 114.366 226.517C114.312 229.064 116.288 231.171 118.778 231.223Z" fill="#4D4D4D"/>
<path d="M132.039 319.12L95.0016 299.977C93.3509 299.123 92.8488 296.783 93.886 294.776L120.814 242.678C121.851 240.671 124.051 239.727 125.701 240.58L162.739 259.724C164.39 260.577 164.892 262.917 163.854 264.924L136.929 317.018C135.892 319.024 133.69 319.973 132.039 319.12Z" fill="#C4C9D6"/>
<path fill-rule="evenodd" clip-rule="evenodd" d="M140.844 246.466L141.788 242.938C141.896 242.731 142.152 242.653 142.355 242.758L151.01 247.231C151.217 247.338 151.295 247.595 151.19 247.798L148.859 250.609L153.907 253.218C154.18 253.359 154.287 253.695 154.146 253.967L152.47 257.21C152.329 257.482 151.993 257.589 151.721 257.449L133.614 248.09C133.342 247.949 133.235 247.613 133.375 247.341L135.052 244.098C135.192 243.826 135.528 243.719 135.8 243.859L140.844 246.466Z" fill="#9FBFFF"/>
<path d="M154.019 117.152C155.245 115.892 157.367 116.936 157.116 118.675C157.004 119.453 157.405 120.215 158.111 120.562C159.688 121.338 159.35 123.679 157.618 123.978C156.844 124.112 156.244 124.729 156.131 125.507C155.881 127.246 153.55 127.649 152.731 126.094C152.364 125.399 151.592 125.019 150.817 125.153C149.085 125.452 147.982 123.36 149.207 122.1C149.755 121.536 149.878 120.684 149.512 119.989C148.692 118.434 150.341 116.739 151.918 117.515C152.623 117.862 153.471 117.715 154.019 117.152Z" fill="#DFD3EF"/>
<path d="M215.019 280.152C216.245 278.892 218.367 279.936 218.116 281.675C218.004 282.453 218.405 283.215 219.111 283.562C220.688 284.338 220.35 286.679 218.618 286.978C217.844 287.112 217.244 287.729 217.131 288.507C216.881 290.246 214.55 290.649 213.731 289.094C213.364 288.399 212.592 288.019 211.817 288.153C210.085 288.452 208.982 286.36 210.207 285.1C210.755 284.536 210.878 283.684 210.512 282.989C209.692 281.434 211.341 279.739 212.918 280.515C213.623 280.862 214.471 280.715 215.019 280.152Z" fill="#57A2F8"/>
<path d="M224.76 152.466C225.499 151.706 226.78 152.336 226.629 153.386C226.561 153.856 226.804 154.316 227.229 154.525C228.181 154.993 227.978 156.406 226.932 156.587C226.465 156.668 226.102 157.04 226.035 157.51C225.883 158.56 224.476 158.803 223.982 157.865C223.76 157.445 223.294 157.215 222.826 157.296C221.781 157.477 221.115 156.214 221.855 155.453C222.185 155.113 222.26 154.599 222.038 154.179C221.543 153.24 222.539 152.217 223.491 152.685C223.916 152.895 224.429 152.806 224.76 152.466Z" fill="#FFF973"/>
<path d="M241.391 74.881C248.315 79.8105 249.932 89.4198 245.002 96.3438C240.072 103.268 230.463 104.885 223.539 99.9551C216.615 95.0255 214.998 85.4163 219.928 78.4922C224.857 71.5682 234.467 69.9514 241.391 74.881Z" fill="url(#paint5_linear_3107_8847)"/>
<path d="M148.166 10.7588C153.445 14.5168 154.678 21.8423 150.92 27.1208C147.161 32.3993 139.836 33.6318 134.558 29.8738C129.279 26.1158 128.046 18.7903 131.804 13.5118C135.563 8.23336 142.888 7.00079 148.166 10.7588Z" fill="url(#paint6_linear_3107_8847)"/>
<defs>
<linearGradient id="paint0_linear_3107_8847" x1="130.925" y1="9.76758" x2="130.925" y2="435.455" gradientUnits="userSpaceOnUse">
<stop stop-color="#509DF8"/>
<stop offset="0.785" stop-color="#C2F4FF"/>
</linearGradient>
<linearGradient id="paint1_linear_3107_8847" x1="208.242" y1="180.895" x2="201.954" y2="192.919" gradientUnits="userSpaceOnUse">
<stop stop-color="#FFE7F2"/>
<stop offset="0.66" stop-color="#EFC8EB"/>
</linearGradient>
<linearGradient id="paint2_linear_3107_8847" x1="59.675" y1="100.361" x2="59.675" y2="328.017" gradientUnits="userSpaceOnUse">
<stop stop-color="#D8DCE5"/>
<stop offset="1" stop-color="#A2ABC2"/>
</linearGradient>
<linearGradient id="paint3_linear_3107_8847" x1="215.402" y1="20.4907" x2="191.182" y2="54.51" gradientUnits="userSpaceOnUse">
<stop stop-color="#BEE0FF"/>
<stop offset="1" stop-color="#F0F7FF"/>
</linearGradient>
<linearGradient id="paint4_linear_3107_8847" x1="42.5992" y1="363.784" x2="44.2739" y2="284.093" gradientUnits="userSpaceOnUse">
<stop stop-color="white" stop-opacity="0"/>
<stop offset="1" stop-color="white"/>
</linearGradient>
<linearGradient id="paint5_linear_3107_8847" x1="246.316" y1="67.9625" x2="235.105" y2="83.7096" gradientUnits="userSpaceOnUse">
<stop stop-color="#BEE0FF"/>
<stop offset="1" stop-color="#F0F7FF"/>
</linearGradient>
<linearGradient id="paint6_linear_3107_8847" x1="151.921" y1="5.48462" x2="143.375" y2="17.4893" gradientUnits="userSpaceOnUse">
<stop stop-color="#BEE0FF"/>
<stop offset="1" stop-color="#F0F7FF"/>
</linearGradient>
</defs>
</svg>
