<svg width="86" height="86" viewBox="0 0 86 86" fill="none" xmlns="http://www.w3.org/2000/svg">
<g clip-path="url(#clip0_2517_10412)">
<rect width="86" height="86" fill="#F5F6F8"/>
<path opacity="0.6" d="M60.1469 37.253C59.6786 34.8262 59.3721 32.3654 58.9719 29.9217C58.9293 29.6577 58.5972 27.6227 59.0655 25.1704C59.3295 23.774 59.6616 23.2375 60.0788 22.9821C60.8707 22.5052 61.8925 23.0843 62.2756 23.3056C65.7156 25.2641 71.4291 39.5775 66.4223 45.274C65.5027 46.3213 63.8253 47.5219 62.5992 46.994C61.3134 46.449 61.5519 44.4821 60.1469 37.253Z" fill="#82828E" fill-opacity="0.54"/>
<path opacity="0.6" d="M27.1431 37.253C27.6114 34.8262 27.9179 32.3654 28.3181 29.9217C28.3607 29.6577 28.6928 27.6227 28.2245 25.1704C27.9605 23.774 27.6284 23.2375 27.2112 22.9821C26.4193 22.5052 25.3975 23.0843 25.0144 23.3056C21.5744 25.2641 15.8609 39.5775 20.8676 45.274C21.7872 46.3213 23.4647 47.5219 24.6908 46.994C25.9765 46.449 25.7381 44.4821 27.1431 37.253Z" fill="#82828E" fill-opacity="0.54"/>
<path d="M14.1412 84.7832C14.3455 80.0149 14.6898 73.4889 15.7371 65.0932C16.8185 56.4166 17.5863 51.5994 19.0338 47.5548C21.0774 41.8499 25.3553 28.4575 37.5145 25.7668C46.0549 23.8765 55.2168 26.167 61.2368 32.485C64.7535 36.1805 66.5001 40.1595 67.6241 43.6676C68.6629 46.9033 69.5922 49.6716 70.052 59.7532C70.912 78.3752 69.2834 81.8201 67.4016 85.0302C66.6608 86.2904 64.5576 89.8836 60.3428 92.1401C59.023 92.8468 58.0353 93.3407 56.0257 93.7153C51.9216 94.4902 45.1608 95.4864 42.5042 97.266C39.8475 99.0456 35.9648 99.2585 29.204 95.4949C22.4432 91.7229 19.3353 88.07 16.1252 87.1844C11.9018 86.0179 9.02377 83.6593 9.13446 83.3953C9.22812 83.1484 11.757 83.9573 14.1412 84.7832Z" fill="url(#paint0_linear_2517_10412)"/>
<path d="M38.3999 48.658C39.6367 48.658 40.6393 47.6554 40.6393 46.4186C40.6393 45.1818 39.6367 44.1792 38.3999 44.1792C37.1631 44.1792 36.1605 45.1818 36.1605 46.4186C36.1605 47.6554 37.1631 48.658 38.3999 48.658Z" fill="#82828F"/>
<path d="M50.7551 48.658C51.9919 48.658 52.9945 47.6554 52.9945 46.4186C52.9945 45.1818 51.9919 44.1792 50.7551 44.1792C49.5183 44.1792 48.5157 45.1818 48.5157 46.4186C48.5157 47.6554 49.5183 48.658 50.7551 48.658Z" fill="#82828F"/>
</g>
<defs>
<linearGradient id="paint0_linear_2517_10412" x1="39.7097" y1="58.9916" x2="39.7097" y2="193.681" gradientUnits="userSpaceOnUse">
<stop stop-color="white"/>
<stop offset="1" stop-color="#D3D4D8"/>
</linearGradient>
<clipPath id="clip0_2517_10412">
<rect width="86" height="86" fill="white"/>
</clipPath>
</defs>
</svg>
