<svg width="118" height="118" viewBox="0 0 118 118" fill="none" xmlns="http://www.w3.org/2000/svg">
<g clip-path="url(#clip0_2517_5222)">
<rect width="117" height="117" transform="translate(0.928223 0.5)" fill="#F5F6F8"/>
<path d="M11.2391 98.2242C11.591 98.4213 12.5246 99.4792 12.5246 99.4792C12.7564 99.5384 14.2079 101.672 14.344 101.702C14.344 101.702 26.7336 117.243 26.8143 117.258C47.7498 125.7 69.9051 125.7 69.9051 125.7C77.0011 125.724 97.7993 112.933 105.322 105.109C109.243 102.811 112.377 94.7041 116.57 87.9719C128.348 69.0871 117.87 46.7993 115.451 41.6108C112.351 34.9673 105.704 20.7138 91.4566 16.8224C89.0678 16.1714 79.5023 13.5574 70.9701 18.8297C66.8677 21.3648 64.5545 24.763 63.36 26.8985C63.224 27.1501 62.9821 27.4953 62.6091 27.5644C62.1908 27.6482 61.8128 27.3424 61.7372 27.2931C60.7595 26.6618 52.0559 24.2204 45.8419 24.5114C40.7013 24.7482 33.7969 26.9824 29.0091 32.5556C23.4402 39.0412 23.4553 46.8683 23.5309 47.1544C23.536 47.1791 23.6519 47.544 23.5561 47.9386C23.5561 47.9386 23.5561 47.9435 23.5561 47.9484C21.5755 47.8991 18.6373 48.0865 15.4572 49.3344C5.92708 53.0728 2.63109 63.0355 1.86505 65.758C-2.96302 82.8623 10.6595 98.017 11.2391 98.2242Z" fill="url(#paint0_linear_2517_5222)"/>
<path d="M45.6779 76.6786C48.0198 76.6786 49.9184 74.7801 49.9184 72.4382C49.9184 70.0963 48.0198 68.1978 45.6779 68.1978C43.336 68.1978 41.4375 70.0963 41.4375 72.4382C41.4375 74.7801 43.336 76.6786 45.6779 76.6786Z" fill="#5E5E6E" fill-opacity="0.76"/>
<path d="M74.9168 75.4542C77.3184 75.4542 79.2653 73.5074 79.2653 71.1058C79.2653 68.7042 77.3184 66.7573 74.9168 66.7573C72.5152 66.7573 70.5684 68.7042 70.5684 71.1058C70.5684 73.5074 72.5152 75.4542 74.9168 75.4542Z" fill="#5E5E6E" fill-opacity="0.76"/>
<path d="M66.8218 81.1678C66.8218 77.8695 63.9376 75.1924 60.3731 75.1924C56.8085 75.1924 53.9243 77.8646 53.9243 81.1678C53.9243 81.6461 53.9933 82.0405 53.9933 82.0405C54.2004 83.1941 54.6836 83.2829 54.6836 83.9781C54.6836 84.6732 54.1955 84.762 53.9933 85.9156C53.9933 85.9156 53.9243 86.3101 53.9243 86.7883C53.9243 90.0866 56.8085 92.7637 60.3731 92.7637C63.9376 92.7637 66.8218 90.0915 66.8218 86.7883C66.8218 86.3101 66.7528 85.9156 66.7528 85.9156C66.5457 84.762 66.0625 84.6683 66.0625 83.9781C66.0625 83.2829 66.5457 83.1941 66.7528 82.0405C66.7528 82.0454 66.8218 81.6461 66.8218 81.1678Z" fill="#DADAE2"/>
<path d="M60.3731 86.8331C61.9469 86.8331 63.2228 85.5573 63.2228 83.9835C63.2228 82.4096 61.9469 81.1338 60.3731 81.1338C58.7993 81.1338 57.5234 82.4096 57.5234 83.9835C57.5234 85.5573 58.7993 86.8331 60.3731 86.8331Z" fill="#919191" fill-opacity="0.43"/>
</g>
<defs>
<linearGradient id="paint0_linear_2517_5222" x1="61.4944" y1="54.3664" x2="61.4944" y2="161.295" gradientUnits="userSpaceOnUse">
<stop stop-color="white"/>
<stop offset="1" stop-color="#EEEFF4"/>
</linearGradient>
<clipPath id="clip0_2517_5222">
<rect width="117" height="117" fill="white" transform="translate(0.928223 0.5)"/>
</clipPath>
</defs>
</svg>
