<svg width="18" height="21" viewBox="0 0 18 21" fill="none" xmlns="http://www.w3.org/2000/svg">
<path d="M17.7957 14.7157C17.2753 13.7964 16.5018 11.1954 16.5018 7.79811C16.5018 5.75789 15.7115 3.80124 14.3047 2.35859C12.8979 0.915941 10.9899 0.105469 9.00047 0.105469C7.011 0.105469 5.10302 0.915941 3.69625 2.35859C2.28949 3.80124 1.49917 5.75789 1.49917 7.79811C1.49917 11.1963 0.724663 13.7964 0.204261 14.7157C0.0713668 14.9494 0.000914497 15.2149 8.84306e-06 15.4855C-0.000896811 15.756 0.0677764 16.022 0.199103 16.2566C0.330429 16.4913 0.519765 16.6862 0.748016 16.8219C0.976267 16.9576 1.23536 17.0291 1.49917 17.0293H5.32577C5.49884 17.8977 5.95909 18.6782 6.62868 19.2388C7.29828 19.7993 8.13611 20.1055 9.00047 20.1055C9.86483 20.1055 10.7027 19.7993 11.3723 19.2388C12.0418 18.6782 12.5021 17.8977 12.6752 17.0293H16.5018C16.7655 17.0289 17.0245 16.9573 17.2526 16.8215C17.4807 16.6858 17.6699 16.4908 17.8011 16.2562C17.9323 16.0216 18.0009 15.7557 18 15.4852C17.999 15.2148 17.9286 14.9494 17.7957 14.7157ZM9.00047 18.5678C8.53522 18.5677 8.08145 18.4196 7.70162 18.1441C7.32178 17.8686 7.03456 17.4791 6.87948 17.0293H11.1215C10.9664 17.4791 10.6792 17.8686 10.2993 18.1441C9.91949 18.4196 9.46572 18.5677 9.00047 18.5678ZM1.49917 15.4907C2.22117 14.2176 2.99943 11.2675 2.99943 7.79811C2.99943 6.16594 3.63168 4.60061 4.75709 3.44649C5.88251 2.29237 7.40889 1.644 9.00047 1.644C10.592 1.644 12.1184 2.29237 13.2438 3.44649C14.3693 4.60061 15.0015 6.16594 15.0015 7.79811C15.0015 11.2646 15.7779 14.2147 16.5018 15.4907H1.49917Z" fill="#27272D"/>
</svg>
