<svg width="13" height="14" viewBox="0 0 13 14" fill="none" xmlns="http://www.w3.org/2000/svg">
<g id="&#240;&#159;&#166;&#134; icon &#34;reload&#34;">
<path id="Vector" d="M6.50814 0C2.92866 0 0 2.92866 0 6.50814C0 10.0876 2.92866 13.0163 6.50814 13.0163C8.29787 13.0163 9.95745 12.3166 11.1289 11.1289L9.95745 9.95745C9.07885 10.836 7.85857 11.3892 6.49187 11.3892C3.79099 11.3892 1.61076 9.20901 1.61076 6.50814C1.61076 3.80726 3.79099 1.62703 6.49187 1.62703C7.8423 1.62703 9.01377 2.21277 9.89237 3.10763L8.1189 4.8811H13V0L11.0638 1.93617C9.89237 0.764706 8.2816 0 6.49187 0H6.50814Z" fill="#27272D"/>
</g>
</svg>
