<svg width="24" height="24" viewBox="0 0 24 24" fill="none" xmlns="http://www.w3.org/2000/svg">
<g id="icon-reset">
<rect x="0.4" y="0.4" width="23.2" height="23.2" rx="3.6" fill="#F9FAFB"/>
<rect x="0.4" y="0.4" width="23.2" height="23.2" rx="3.6" stroke="#E7EAF2" stroke-width="0.8"/>
<g id="&#240;&#159;&#166;&#134; icon &#34;reload&#34;">
<path id="Vector" d="M12.5081 5.49182C8.92866 5.49182 6 8.42048 6 12C6 15.5794 8.92866 18.5081 12.5081 18.5081C14.2979 18.5081 15.9574 17.8085 17.1289 16.6207L15.9574 15.4493C15.0788 16.3279 13.8586 16.8811 12.4919 16.8811C9.79099 16.8811 7.61076 14.7008 7.61076 12C7.61076 9.29908 9.79099 7.11886 12.4919 7.11886C13.8423 7.11886 15.0138 7.70459 15.8924 8.59946L14.1189 10.3729H19V5.49182L17.0638 7.42799C15.8924 6.25653 14.2816 5.49182 12.4919 5.49182H12.5081Z" fill="#C5C5C5"/>
</g>
</g>
</svg>
