<svg width="64" height="23" viewBox="0 0 64 23" fill="none" xmlns="http://www.w3.org/2000/svg">
<path d="M5.46619 16.3711C4.76339 16.3711 4.1519 16.2632 3.63171 16.0474C3.11153 15.8315 2.69373 15.5216 2.3783 15.1177C2.0684 14.7082 1.86641 14.2212 1.77234 13.6567H3.15027C3.20561 13.9832 3.33289 14.2655 3.5321 14.5034C3.73132 14.7358 3.99418 14.9157 4.32068 15.043C4.64718 15.1702 5.03455 15.2339 5.48279 15.2339C5.87016 15.2339 6.20772 15.1785 6.49548 15.0679C6.78878 14.9572 7.0129 14.805 7.16785 14.6113C7.32833 14.4121 7.40857 14.1825 7.40857 13.9224C7.40857 13.6291 7.34493 13.3939 7.21765 13.2168C7.09037 13.0342 6.86902 12.882 6.55359 12.7603C6.24369 12.633 5.79822 12.5195 5.21716 12.4199C4.48116 12.2871 3.89181 12.1128 3.4491 11.897C3.01192 11.6812 2.69096 11.41 2.48621 11.0835C2.28699 10.7515 2.18738 10.3392 2.18738 9.84668C2.18738 9.37077 2.31466 8.95296 2.56921 8.59326C2.82931 8.22803 3.19454 7.94303 3.66492 7.73828C4.13529 7.53353 4.67761 7.43115 5.29187 7.43115C6.24923 7.43115 7.0046 7.65527 7.55798 8.10352C8.1169 8.55176 8.44893 9.19092 8.55408 10.021H7.21765C7.12358 9.52295 6.91882 9.15495 6.60339 8.91699C6.2935 8.6735 5.85632 8.55176 5.29187 8.55176C4.92664 8.55176 4.61121 8.60433 4.34558 8.70947C4.07996 8.80908 3.8752 8.9502 3.73132 9.13281C3.58744 9.31543 3.5155 9.53125 3.5155 9.78027C3.5155 10.0459 3.57914 10.2673 3.70642 10.4443C3.8337 10.6214 4.03569 10.7681 4.31238 10.8843C4.58907 11.0005 4.96537 11.1001 5.44128 11.1831C6.28243 11.3325 6.93819 11.5151 7.40857 11.731C7.88448 11.9468 8.22481 12.2235 8.42957 12.561C8.63985 12.8931 8.745 13.3247 8.745 13.856C8.745 14.3374 8.60388 14.769 8.32166 15.1509C8.04496 15.5272 7.65759 15.826 7.15955 16.0474C6.6615 16.2632 6.09705 16.3711 5.46619 16.3711ZM13.8653 16.3711C13.0076 16.3711 12.2467 16.1857 11.5826 15.8149C10.9185 15.4386 10.4011 14.9129 10.0304 14.2378C9.66512 13.5627 9.4825 12.7824 9.4825 11.897C9.4825 11.0171 9.67619 10.2396 10.0636 9.56445C10.4509 8.88379 10.9739 8.35807 11.6324 7.9873C12.2965 7.61654 13.0269 7.43115 13.8238 7.43115C14.665 7.43115 15.401 7.611 16.0318 7.9707C16.6682 8.32487 17.158 8.82015 17.5011 9.45654C17.8497 10.0929 18.024 10.8206 18.024 11.6396C18.024 11.7116 18.0212 11.7863 18.0157 11.8638C18.0157 11.9412 18.0129 12.0187 18.0074 12.0962C18.0019 12.1515 17.9963 12.2041 17.9908 12.2539C17.9908 12.2982 17.988 12.3397 17.9825 12.3784H10.5367V11.2412H16.9366L16.6793 11.3574C16.6793 10.8206 16.5603 10.342 16.3223 9.92139C16.0899 9.49528 15.7579 9.16602 15.3263 8.93359C14.8946 8.70117 14.3966 8.58496 13.8321 8.58496C13.2677 8.58496 12.7668 8.70671 12.3297 8.9502C11.898 9.19368 11.5549 9.53402 11.3004 9.97119C11.0458 10.4084 10.9075 10.9119 10.8853 11.4819V12.1377C10.8853 12.7409 11.0098 13.2749 11.2589 13.7397C11.5079 14.1991 11.8565 14.5588 12.3048 14.8188C12.7585 15.0734 13.2787 15.2007 13.8653 15.2007C14.308 15.2007 14.712 15.1343 15.0772 15.0015C15.4425 14.8631 15.7468 14.6694 15.9903 14.4204C16.2393 14.1714 16.4109 13.8781 16.505 13.5405H17.8912C17.7584 14.116 17.5066 14.6169 17.1358 15.043C16.7651 15.4691 16.2974 15.7983 15.733 16.0308C15.1741 16.2576 14.5515 16.3711 13.8653 16.3711ZM23.3352 16.3711C22.4664 16.3711 21.6834 16.1802 20.9861 15.7983C20.2944 15.411 19.7521 14.877 19.3592 14.1963C18.9663 13.5156 18.7698 12.752 18.7698 11.9053C18.7698 11.0531 18.9663 10.2866 19.3592 9.60596C19.7521 8.92529 20.2944 8.39404 20.9861 8.01221C21.6834 7.62484 22.4664 7.43115 23.3352 7.43115C24.2041 7.43115 24.9843 7.62484 25.6761 8.01221C26.3733 8.39404 26.9184 8.92529 27.3113 9.60596C27.7098 10.2866 27.909 11.0531 27.909 11.9053C27.909 12.752 27.7098 13.5156 27.3113 14.1963C26.9184 14.877 26.3733 15.411 25.6761 15.7983C24.9843 16.1802 24.2041 16.3711 23.3352 16.3711ZM23.3352 15.1841C23.9495 15.1841 24.4946 15.0457 24.9705 14.769C25.4519 14.4868 25.8255 14.0994 26.0911 13.6069C26.3567 13.1089 26.4895 12.5417 26.4895 11.9053C26.4895 11.2689 26.3567 10.7017 26.0911 10.2036C25.8255 9.70557 25.4519 9.3182 24.9705 9.0415C24.4946 8.75928 23.9495 8.61816 23.3352 8.61816C22.721 8.61816 22.1759 8.75928 21.7 9.0415C21.2241 9.3182 20.8533 9.70557 20.5877 10.2036C20.3221 10.7017 20.1892 11.2689 20.1892 11.9053C20.1892 12.5417 20.3221 13.1089 20.5877 13.6069C20.8533 14.0994 21.2241 14.4868 21.7 14.769C22.1759 15.0457 22.721 15.1841 23.3352 15.1841ZM29.2358 16.1055V7.69678H30.2568C30.2624 7.86833 30.2707 8.04818 30.2817 8.23633C30.2983 8.41895 30.3149 8.58496 30.3315 8.73438C30.3537 8.88379 30.3813 8.98893 30.4146 9.0498C30.4533 9.10514 30.5059 9.13281 30.5723 9.13281C30.6221 9.13281 30.6636 9.11898 30.6968 9.09131C30.7355 9.05811 30.7881 8.99447 30.8545 8.90039C31.181 8.41895 31.5794 8.05371 32.0498 7.80469C32.5202 7.55566 33.0736 7.43115 33.71 7.43115C34.3851 7.43115 34.9606 7.5695 35.4365 7.84619C35.918 8.12288 36.286 8.52686 36.5405 9.05811C36.7951 9.58382 36.9224 10.223 36.9224 10.9756V16.1055H35.5527V11.125C35.5527 10.5993 35.4697 10.151 35.3037 9.78027C35.1377 9.40951 34.8997 9.12728 34.5898 8.93359C34.2799 8.73991 33.9036 8.64307 33.4609 8.64307C33.0016 8.64307 32.5894 8.73714 32.2241 8.92529C31.8644 9.11344 31.5601 9.39567 31.311 9.77197C31.062 10.1427 30.8822 10.5744 30.7715 11.0669C30.6608 11.5539 30.6055 12.0962 30.6055 12.6938V16.1055H29.2358ZM39.5774 19.6748L41.2375 15.8315V16.3794L37.5022 7.69678H39.0378L42.0593 14.9932H41.7107L44.6657 7.69678H46.1018L40.9885 19.6748H39.5774ZM49.3295 16.3711C48.7152 16.3711 48.1729 16.266 47.7026 16.0557C47.2322 15.8398 46.8642 15.5299 46.5985 15.126C46.3385 14.7165 46.2084 14.2323 46.2084 13.6733C46.2084 13.1532 46.3302 12.716 46.5736 12.3618C46.8171 12.0021 47.1824 11.7227 47.6693 11.5234C48.1619 11.3187 48.7789 11.1942 49.5204 11.1499C50.3007 11.1056 50.9426 11.0503 51.4462 10.9839C51.9498 10.9119 52.2818 10.8345 52.4423 10.7515V11.7725C52.2707 11.8665 51.9636 11.9468 51.5209 12.0132C51.0782 12.0796 50.4418 12.146 49.6117 12.2124C49.1248 12.2511 48.7318 12.3286 48.433 12.4448C48.1342 12.561 47.9156 12.7188 47.7773 12.918C47.6389 13.1117 47.5697 13.3607 47.5697 13.665C47.5697 14.0026 47.6527 14.2904 47.8188 14.5283C47.9848 14.7663 48.2172 14.9461 48.516 15.0679C48.8149 15.1896 49.1663 15.2505 49.5702 15.2505C50.0849 15.2505 50.5442 15.1453 50.9482 14.9351C51.3577 14.7192 51.6731 14.3595 51.8944 13.856C52.0162 13.5959 52.1075 13.3081 52.1684 12.9927C52.2292 12.6717 52.2597 12.312 52.2597 11.9136V10.8926C52.2597 10.14 52.0743 9.56722 51.7035 9.17432C51.3383 8.78141 50.807 8.58496 50.1098 8.58496C49.5121 8.58496 49.0168 8.72607 48.6239 9.0083C48.2366 9.28499 47.9792 9.66683 47.852 10.1538H46.4657C46.5819 9.60596 46.8033 9.12728 47.1298 8.71777C47.4563 8.30827 47.8741 7.99284 48.3832 7.77148C48.8979 7.5446 49.4817 7.43115 50.1347 7.43115C51.2747 7.43115 52.1379 7.73828 52.7245 8.35254C53.3111 8.9668 53.6044 9.84668 53.6044 10.9922V16.1055H52.6083C52.6028 16.0225 52.5972 15.9422 52.5917 15.8647C52.5917 15.7817 52.5862 15.7015 52.5751 15.624C52.5696 15.5078 52.5585 15.3999 52.5419 15.3003C52.5308 15.2007 52.5142 15.1232 52.4921 15.0679C52.47 15.0015 52.4451 14.9517 52.4174 14.9185C52.3953 14.8853 52.3593 14.8687 52.3095 14.8687C52.2486 14.8687 52.196 14.888 52.1518 14.9268C52.113 14.96 52.0577 15.0291 51.9858 15.1343C51.7035 15.5438 51.3411 15.8537 50.8984 16.064C50.4556 16.2687 49.9327 16.3711 49.3295 16.3711ZM60.9493 16.1055L56.7159 11.8887L60.8912 7.69678H62.6427L58.1022 12.1875L58.2267 11.5732L62.817 16.1055H60.9493ZM55.4376 16.1055V4.10254H56.8073V16.1055H55.4376Z" fill="black"/>
</svg>
