<svg width="32" height="32" viewBox="0 0 32 32" fill="none" xmlns="http://www.w3.org/2000/svg">
<rect width="32" height="32" rx="5" fill="white"/>
<path d="M22.0383 11.2093H6.81677C6.27599 11.2093 5.83594 10.7842 5.83594 10.2503V7.46676C5.83594 6.93804 6.27599 6.50781 6.81677 6.50781H22.0383C22.5791 6.50781 23.0191 6.93804 23.0191 7.46676V10.2503C23.0191 10.7842 22.5791 11.2093 22.0383 11.2093Z" fill="#4685FF"/>
<path d="M20.734 18.0387H6.81677C6.27599 18.0387 5.83594 17.6084 5.83594 17.0797V14.291C5.83594 13.7623 6.27599 13.332 6.81677 13.332H20.734C21.2748 13.332 21.7149 13.7623 21.7149 14.291V17.0797C21.7149 17.6084 21.2748 18.0387 20.734 18.0387Z" fill="#4685FF"/>
<path d="M25.6435 24.8629H6.81677C6.27599 24.8629 5.83594 24.4327 5.83594 23.9039V21.1152C5.83594 20.5865 6.27599 20.1562 6.81677 20.1562H25.6435C26.1843 20.1562 26.6244 20.5865 26.6244 21.1152V23.9039C26.6191 24.4327 26.1843 24.8629 25.6435 24.8629Z" fill="#4685FF"/>
</svg>